<?xml version="1.0" encoding="utf-8"?>
<!-- Generator: Adobe Illustrator 19.0.0, SVG Export Plug-In . SVG Version: 6.00 Build 0)  -->
<svg version="1.1" id="Шар_1" xmlns="http://www.w3.org/2000/svg" xmlns:xlink="http://www.w3.org/1999/xlink" x="0px" y="0px"
	 viewBox="44 -49.9 107 112.9" style="enable-background:new 44 -49.9 107 112.9;" xml:space="preserve">
<style type="text/css">
	.st0{fill:#1A1A1A;}
</style>
<path class="st0" d="M119.4-18c0.4-1,0.6-2.1,0.8-3.2c3.3-19.9-6.4-20.6-6.4-20.6c-1.4-2.3-3.4-4.2-5.8-5.5c-3.6-2.1-7.8-3-12-2.6
	c-1.6,0.1-3.2,0.4-4.8,0.9c-1.9,0.7-3.6,1.6-5.3,2.7c-2,1.3-3.8,2.8-5.4,4.5c-2.9,2.9-4.9,6.4-5.8,10.4c-0.7,3.3-0.7,6.8,0,10.1
	c0.2,1.1,0.5,2.1,0.8,3.2c-1.9-0.2-4.2,0.9-2.1,8.6c1.5,5.6,3,7.2,4.1,7.3C78.5,4.5,83.6,13,92,16c3.4,1.2,7.2,1.2,10.6,0
	c8.3-3,13.5-11.5,14.6-18.2c1.1-0.1,2.6-1.7,4.1-7.3C123.6-17,121.3-18.2,119.4-18z"/>
<path class="st0" d="M135.6,24.1c-7.6-2.1-14.8-5.4-21.4-9.9l-7.5,23.9l-1.4,4.5v-0.1l-1.2,3.8l-4-11.3c9.7-13.7-2-13.6-2.6-13.5
	c-0.7,0-12.3-0.2-2.6,13.5l-4,11.3l-1.2-3.8v0.1l-1.4-4.5l-7.5-23.9C74.3,18.6,67,22,59.4,24.1c-8.8,2.3-9.2,12.5-8.9,17.6
	c0,0,0.5,18.2,1,21.2c0,0,17.2,0,46,0s46,0,46,0c0.5-3,1-21.2,1-21.2C144.8,36.7,144.4,26.4,135.6,24.1z"/>
<rect x="44" y="58.3" class="st0" width="107" height="4.7"/>
</svg>
