<?xml version="1.0" encoding="utf-8"?>
<!-- Generator: Adobe Illustrator 19.0.0, SVG Export Plug-In . SVG Version: 6.00 Build 0)  -->
<svg version="1.1" id="Шар_1" xmlns="http://www.w3.org/2000/svg" xmlns:xlink="http://www.w3.org/1999/xlink" x="0px" y="0px"
	 viewBox="43 -49.3 107 113.3" style="enable-background:new 43 -49.3 107 113.3;" xml:space="preserve">
<style type="text/css">
	.st0{fill:#1A1A1A;}
</style>
<path id="Forma_1" class="st0" d="M62.9-26.7L91.2-18l1.4-4.7L62.3-32l-13.5,7.8l2.4,4.3L62.9-26.7z M62.9-18l28.3,8.7l1.4-4.7
	l-30.3-9.3l-13.5,7.8l2.4,4.3L62.9-18z M62.9-9.4l28.3,8.7l1.4-4.7l-30.3-9.3L48.8-6.8l2.4,4.3L62.9-9.4z M62.9-0.7L91.2,8l1.4-4.7
	L62.3-6L48.8,1.8l2.4,4.3L62.9-0.7z M62.9,8l28.3,8.7l1.4-4.7L62.3,2.6l-13.5,7.8l2.4,4.3L62.9,8z M62.9,16.6l28.3,8.7l1.4-4.7
	l-30.3-9.3l-13.5,7.8l2.4,4.3L62.9,16.6z M62.9,25.3L91.2,34l1.4-4.7L62.3,20l-13.5,7.8l2.4,4.3L62.9,25.3z M62.9,34l28.3,8.7
	l1.4-4.7l-30.3-9.3l-13.5,7.8l2.4,4.3L62.9,34z M109.1-26.7l28.3,8.7l1.4-4.7L108.5-32L95-24.2l2.4,4.3L109.1-26.7z M109.1-35.4
	l28.3,8.7l1.4-4.7l-30.3-9.3L95-32.8l2.4,4.3L109.1-35.4z M109.1-44l28.3,8.7l1.4-4.7l-30.3-9.3L95-41.5l2.4,4.3L109.1-44z
	 M109.1-18l28.3,8.7l1.4-4.7l-30.3-9.3L95-15.5l2.4,4.3L109.1-18z M109.1-9.4l28.3,8.7l1.4-4.7l-30.3-9.3L95-6.8l2.4,4.3L109.1-9.4z
	 M109.1-0.7L137.4,8l1.4-4.7L108.5-6L95,1.8l2.4,4.3L109.1-0.7z M109.1,8l28.3,8.7l1.4-4.7l-30.3-9.3L95,10.5l2.4,4.3L109.1,8z
	 M109.1,16.6l28.3,8.7l1.4-4.7l-30.3-9.3L95,19.2l2.4,4.3L109.1,16.6z M109.1,25.3l28.3,8.7l1.4-4.7L108.5,20L95,27.8l2.4,4.3
	L109.1,25.3z M109.1,34l28.3,8.7l1.4-4.7l-30.3-9.3L95,36.5l2.4,4.3L109.1,34z M137.4,59.3v-8.2l1.4-4.5l-30.3-9.3L95,45.1l1.4,2.4
	v11.8h-5.2v-8.2l1.4-4.5l-30.3-9.3l-13.5,7.8l1.4,2.4v11.8H43V64h107v-4.7H137.4L137.4,59.3z M69.3,59.3v-10l14.8,3.6v6.4L69.3,59.3
	L69.3,59.3z M115.5,59.3v-10l14.8,3.6v6.4L115.5,59.3L115.5,59.3z"/>
</svg>
