<svg xmlns="http://www.w3.org/2000/svg" width="106.97" height="113.344" viewBox="0 0 106.97 113.344">
  <defs>
    <style>
      .cls-1 {
        fill: #fff;
        fill-rule: evenodd;
      }
    </style>
  </defs>
  <path id="Forma_1" data-name="Forma 1" class="cls-1" d="M1106.94,838.645l28.28,8.675,1.42-4.7-30.31-9.293-13.46,7.848,2.43,4.253Zm0,8.665,28.28,8.674,1.42-4.7-30.31-9.293-13.46,7.849,2.43,4.252Zm0,8.664,28.28,8.675,1.42-4.7-30.31-9.292-13.46,7.848,2.43,4.253Zm0,8.665,28.28,8.674,1.42-4.7-30.31-9.293-13.46,7.849,2.43,4.252Zm0,8.664,28.28,8.674,1.42-4.7-30.31-9.293-13.46,7.849,2.43,4.252Zm0,8.664,28.28,8.675,1.42-4.7-30.31-9.293-13.46,7.848,2.43,4.253Zm0,8.665,28.28,8.674,1.42-4.7-30.31-9.293-13.46,7.849,2.43,4.252Zm0,8.664,28.28,8.675,1.42-4.7-30.31-9.293-13.46,7.848,2.43,4.252Zm46.2-60.651,28.29,8.675,1.41-4.7-30.3-9.293-13.47,7.848,2.43,4.253Zm0-8.664,28.29,8.674,1.41-4.7-30.3-9.293-13.47,7.849,2.43,4.252Zm0-8.665,28.29,8.675,1.41-4.7L1152.54,816l-13.47,7.848,2.43,4.253Zm0,25.994,28.29,8.674,1.41-4.7-30.3-9.293-13.47,7.849,2.43,4.252Zm0,8.664,28.29,8.675,1.41-4.7-30.3-9.292-13.47,7.848,2.43,4.253Zm0,8.665,28.29,8.674,1.41-4.7-30.3-9.293-13.47,7.849,2.43,4.252Zm0,8.664,28.29,8.674,1.41-4.7-30.3-9.293-13.47,7.849,2.43,4.252Zm0,8.664,28.29,8.675,1.41-4.7-30.3-9.293-13.47,7.848,2.43,4.253Zm0,8.665,28.29,8.674,1.41-4.7-30.3-9.293-13.47,7.849,2.43,4.252Zm0,8.664,28.29,8.675,1.41-4.7-30.3-9.293-13.47,7.848,2.43,4.252Zm28.34,25.341V916.46l1.36-4.523-30.3-9.293-13.47,7.848,1.36,2.381v11.764h-5.15V916.46l1.36-4.523-30.31-9.293-13.46,7.848,1.36,2.381v11.764h-7.18v4.7H1194v-4.7h-12.52Zm-68.16,0v-9.983l14.85,3.6v6.384h-14.85Zm46.21,0v-9.983l14.84,3.6v6.384h-14.84Z" transform="translate(-1087.03 -816)"/>
</svg>
