<svg xmlns="http://www.w3.org/2000/svg" width="34.969" height="35" viewBox="0 0 34.969 35">
  <defs>
    <style>
      .cls-1 {
        fill: #e8e8e8;
        fill-rule: evenodd;
      }
    </style>
  </defs>
  <path id="Forma_1" data-name="Forma 1" class="cls-1" d="M120.157,1066a3.267,3.267,0,0,1-.878-0.08c-5.187-1.03-9.1-4.35-11.889-7.13-2.873-2.85-6.305-6.73-7.262-12.03a5.021,5.021,0,0,1,1.436-4.52l0.718-.71a4.119,4.119,0,0,1,3.113-1.27,4.433,4.433,0,0,1,3.112,1.27l1.117,1.11a4.026,4.026,0,0,1,1.117,3.09,3.732,3.732,0,0,1-1.835,2.77,0.928,0.928,0,0,0-.4.55,0.967,0.967,0,0,0,.159.64l0.319,0.39a39.679,39.679,0,0,0,6.624,6.58l0.08,0.08a1.227,1.227,0,0,0,1.915-.32,3.379,3.379,0,0,1,5.266-.63l1.516,1.5a4.353,4.353,0,0,1,0,6.18l-1.2,1.18A4.144,4.144,0,0,1,120.157,1066Zm-14.763-23.44a2.026,2.026,0,0,0-1.436.63l-0.718.72a2.607,2.607,0,0,0-.718,2.37c0.877,4.67,3.99,8.24,6.623,10.77,2.553,2.54,6.144,5.62,10.693,6.5a2.012,2.012,0,0,0,1.835-.56l1.2-1.19a2,2,0,0,0,0-2.85l-1.676-1.42a1.022,1.022,0,0,0-.8-0.32,0.918,0.918,0,0,0-.718.48,3.48,3.48,0,0,1-2.474,1.74,3.7,3.7,0,0,1-2.952-.79l-0.08-.08a41.759,41.759,0,0,1-7.022-6.97l-0.319-.4a3.125,3.125,0,0,1,.877-4.67,1.234,1.234,0,0,0,.639-1.03,1.385,1.385,0,0,0-.4-1.19l-1.117-1.11A2.178,2.178,0,0,0,105.394,1042.56Zm18.992,9.27a1.227,1.227,0,0,1-1.2-1.19,7.971,7.971,0,0,0-7.979-7.92,1.19,1.19,0,1,1,0-2.38,10.319,10.319,0,0,1,10.373,10.3A1.227,1.227,0,0,1,124.386,1051.83Zm9.417,0a1.227,1.227,0,0,1-1.2-1.19,17.37,17.37,0,0,0-17.4-17.26,1.19,1.19,0,1,1,0-2.38A19.712,19.712,0,0,1,135,1050.64,1.175,1.175,0,0,1,133.8,1051.83Zm-4.629,0a1.227,1.227,0,0,1-1.2-1.19,12.755,12.755,0,0,0-12.767-12.67,1.19,1.19,0,1,1,0-2.38,15.1,15.1,0,0,1,15.161,15.05A1.227,1.227,0,0,1,129.174,1051.83Z" transform="translate(-100.031 -1031)"/>
</svg>
