<?xml version="1.0" encoding="utf-8"?>
<!-- Generator: Adobe Illustrator 19.0.0, SVG Export Plug-In . SVG Version: 6.00 Build 0)  -->
<svg version="1.1" id="Шар_1" xmlns="http://www.w3.org/2000/svg" xmlns:xlink="http://www.w3.org/1999/xlink" x="0px" y="0px"
	 viewBox="0 0 99.3 41.8" style="enable-background:new 0 0 99.3 41.8;" xml:space="preserve">
<style type="text/css">
	.st0{fill:#FFFFFF;}
	.st1{fill:none;stroke:#FFFFFF;stroke-miterlimit:10;}
</style>
<path class="st0" d="M28.7,18.7c-0.8,0-1.5-0.1-2.3-0.4c-0.7-0.3-1.4-0.7-2-1.2l1.1-1.3c0.5,0.4,1,0.8,1.5,1
	c0.5,0.2,1.1,0.3,1.7,0.3c0.6,0,1-0.1,1.3-0.3c0.3-0.2,0.5-0.5,0.5-0.9v0c0-0.2,0-0.3-0.1-0.5c-0.1-0.1-0.2-0.3-0.4-0.4
	c-0.2-0.1-0.4-0.2-0.7-0.4c-0.3-0.1-0.7-0.2-1.2-0.3c-0.5-0.1-1-0.3-1.5-0.4c-0.4-0.2-0.8-0.4-1.1-0.6c-0.3-0.2-0.5-0.5-0.7-0.8
	c-0.1-0.3-0.2-0.7-0.2-1.2v0c0-0.4,0.1-0.8,0.3-1.2c0.2-0.4,0.4-0.7,0.7-0.9c0.3-0.3,0.7-0.5,1.1-0.6c0.4-0.1,0.9-0.2,1.4-0.2
	c0.7,0,1.4,0.1,2,0.3c0.6,0.2,1.2,0.5,1.7,1l-1,1.4c-0.5-0.3-0.9-0.6-1.4-0.8c-0.5-0.2-0.9-0.3-1.4-0.3c-0.5,0-0.9,0.1-1.2,0.3
	c-0.3,0.2-0.4,0.5-0.4,0.9v0c0,0.2,0,0.4,0.1,0.5c0.1,0.2,0.2,0.3,0.4,0.4c0.2,0.1,0.4,0.2,0.7,0.3c0.3,0.1,0.7,0.2,1.2,0.3
	c0.5,0.1,1,0.3,1.4,0.5c0.4,0.2,0.8,0.4,1,0.6c0.3,0.2,0.5,0.5,0.6,0.8c0.1,0.3,0.2,0.7,0.2,1.1v0c0,0.5-0.1,0.9-0.3,1.3
	c-0.2,0.4-0.4,0.7-0.7,1c-0.3,0.3-0.7,0.5-1.1,0.6C29.8,18.7,29.3,18.7,28.7,18.7"/>
<polygon class="st0" points="34.5,8.4 36.4,8.4 39.5,13.2 42.6,8.4 44.5,8.4 44.5,18.6 42.7,18.6 42.7,11.3 39.5,16.1 39.4,16.1 
	36.2,11.3 36.2,18.6 34.5,18.6 "/>
<polygon class="st0" points="50.1,14.6 46,8.4 48.1,8.4 51,12.9 53.9,8.4 55.9,8.4 51.9,14.5 51.9,18.6 50.1,18.6 "/>
<polygon class="st0" points="60,10.1 56.8,10.1 56.8,8.4 65,8.4 65,10.1 61.8,10.1 61.8,18.6 60,18.6 "/>
<polygon class="st0" points="66.9,8.4 68.7,8.4 68.7,12.7 73.6,12.7 73.6,8.4 75.3,8.4 75.3,18.6 73.6,18.6 73.6,14.3 68.7,14.3 
	68.7,18.6 66.9,18.6 "/>
<path class="st0" d="M88.3,17c-0.5,0.6-1,1-1.6,1.3c-0.6,0.3-1.2,0.5-1.9,0.5c-0.4,0-0.9-0.1-1.2-0.2c-0.4-0.1-0.7-0.3-1-0.6
	s-0.5-0.5-0.7-0.9c-0.2-0.3-0.2-0.7-0.2-1.1v0c0-0.7,0.2-1.3,0.7-1.8c0.5-0.5,1.1-0.9,1.9-1.2c-0.4-0.4-0.7-0.8-0.9-1.2
	c-0.2-0.3-0.3-0.7-0.3-1.2v0c0-0.3,0.1-0.6,0.2-0.9c0.1-0.3,0.3-0.5,0.5-0.7c0.2-0.2,0.5-0.4,0.8-0.5c0.3-0.1,0.7-0.2,1-0.2
	c0.3,0,0.6,0.1,0.9,0.2c0.3,0.1,0.5,0.3,0.7,0.5c0.2,0.2,0.4,0.4,0.5,0.7c0.1,0.3,0.2,0.6,0.2,0.9v0c0,0.6-0.2,1.2-0.7,1.6
	c-0.4,0.4-1.1,0.8-1.8,1l2.7,2.7c0.3-0.3,0.5-0.7,0.7-1.1c0.2-0.4,0.4-0.9,0.6-1.3l0.7,0.3c-0.2,0.5-0.5,1-0.7,1.5s-0.5,0.9-0.8,1.2
	l1.9,1.9l-0.6,0.5L88.3,17z M84.9,18.1c0.6,0,1.1-0.1,1.6-0.4c0.5-0.3,0.9-0.7,1.4-1.2l-3-3.1C84,13.7,83.4,14,83,14.5
	c-0.4,0.4-0.6,0.9-0.6,1.4v0c0,0.3,0.1,0.6,0.2,0.9c0.1,0.3,0.3,0.5,0.5,0.7c0.2,0.2,0.5,0.4,0.8,0.5C84.2,18,84.5,18.1,84.9,18.1
	 M85.2,12.7c1.5-0.5,2.2-1.2,2.2-2.1v0c0-0.5-0.2-0.8-0.5-1.1c-0.3-0.3-0.7-0.5-1.2-0.5c-0.5,0-0.9,0.2-1.3,0.5
	c-0.3,0.3-0.5,0.7-0.5,1.2v0c0,0.2,0,0.3,0.1,0.5c0,0.1,0.1,0.3,0.2,0.5c0.1,0.2,0.2,0.3,0.4,0.5C84.7,12.2,84.9,12.4,85.2,12.7"/>
<path class="st0" d="M0.9,21.2h4.2c0.6,0,1.1,0.1,1.5,0.2c0.4,0.2,0.8,0.4,1.1,0.7c0.4,0.4,0.7,1,0.7,1.6v0c0,0.3-0.1,0.7-0.2,0.9
	c-0.1,0.3-0.2,0.5-0.4,0.7c-0.2,0.2-0.3,0.4-0.6,0.5c-0.2,0.1-0.4,0.2-0.6,0.3c0.3,0.1,0.6,0.2,0.9,0.3c0.3,0.1,0.5,0.3,0.7,0.5
	c0.2,0.2,0.4,0.4,0.5,0.7C8.9,27.9,9,28.2,9,28.6v0c0,0.4-0.1,0.8-0.3,1.2c-0.2,0.3-0.4,0.6-0.7,0.9c-0.3,0.2-0.7,0.4-1.1,0.6
	c-0.4,0.1-0.9,0.2-1.5,0.2H0.9V21.2z M5,25.9c0.4,0,0.7,0,1-0.1c0.3-0.1,0.6-0.2,0.8-0.4c0.2-0.2,0.4-0.4,0.5-0.7
	c0.1-0.3,0.2-0.6,0.2-0.9v0c0-0.6-0.2-1-0.7-1.4c-0.4-0.3-1.1-0.5-1.9-0.5H1.7v4H5z M5.4,30.7c0.9,0,1.6-0.2,2.1-0.6
	c0.5-0.4,0.8-0.9,0.8-1.5v0c0-0.6-0.3-1.1-0.8-1.5c-0.5-0.3-1.3-0.5-2.3-0.5H1.7v4.1H5.4z"/>
<path class="st0" d="M11.4,21.2h4.3c0.6,0,1.2,0.1,1.7,0.3c0.5,0.2,0.9,0.4,1.2,0.7c0.2,0.2,0.4,0.5,0.6,0.9c0.1,0.3,0.2,0.7,0.2,1
	v0c0,0.4-0.1,0.8-0.2,1.1c-0.2,0.3-0.4,0.6-0.6,0.9c-0.3,0.2-0.6,0.4-0.9,0.6c-0.4,0.1-0.8,0.3-1.2,0.3l3.4,4.3h-1l-3.2-4.2h0h-3.3
	v4.2h-0.8V21.2z M15.6,26.5c0.4,0,0.8-0.1,1.2-0.2c0.4-0.1,0.7-0.3,0.9-0.5c0.3-0.2,0.5-0.4,0.6-0.7c0.2-0.3,0.2-0.6,0.2-1v0
	c0-0.7-0.3-1.2-0.8-1.6c-0.5-0.4-1.2-0.6-2.2-0.6h-3.5v4.6H15.6z"/>
<path class="st0" d="M25.8,21.1h0.7l4.7,10.3h-0.8l-1.3-2.8h-6l-1.3,2.8h-0.8L25.8,21.1z M28.8,27.8l-2.7-5.9l-2.7,5.9H28.8z"/>
<path class="st0" d="M33.4,21.2h3.4c0.8,0,1.5,0.1,2.2,0.4c0.7,0.3,1.2,0.6,1.7,1.1c0.5,0.5,0.8,1,1.1,1.6c0.3,0.6,0.4,1.3,0.4,2v0
	c0,0.7-0.1,1.4-0.4,2c-0.3,0.6-0.6,1.2-1.1,1.6c-0.5,0.5-1.1,0.8-1.7,1.1c-0.7,0.3-1.4,0.4-2.2,0.4h-3.4V21.2z M36.8,30.7
	c0.7,0,1.3-0.1,1.9-0.3c0.6-0.2,1.1-0.5,1.5-0.9c0.4-0.4,0.7-0.9,0.9-1.4c0.2-0.5,0.3-1.1,0.3-1.7v0c0-0.6-0.1-1.2-0.3-1.7
	c-0.2-0.5-0.5-1-0.9-1.4c-0.4-0.4-0.9-0.7-1.5-0.9c-0.6-0.2-1.2-0.4-1.9-0.4h-2.6v8.8H36.8z"/>
<path class="st0" d="M48.2,31.5c-0.8,0-1.5-0.1-2.2-0.4c-0.7-0.3-1.3-0.7-1.9-1.2l0.5-0.6c0.3,0.3,0.6,0.5,0.8,0.7
	c0.3,0.2,0.6,0.3,0.8,0.5c0.3,0.1,0.6,0.2,0.9,0.3s0.7,0.1,1,0.1c0.4,0,0.7,0,1-0.2c0.3-0.1,0.6-0.2,0.8-0.4
	c0.2-0.2,0.4-0.4,0.5-0.6c0.1-0.2,0.2-0.5,0.2-0.8v0c0-0.3,0-0.5-0.1-0.7c-0.1-0.2-0.2-0.4-0.5-0.6c-0.2-0.2-0.5-0.3-0.9-0.5
	c-0.4-0.1-0.8-0.3-1.4-0.4c-0.6-0.1-1.1-0.3-1.6-0.4c-0.4-0.2-0.8-0.4-1.1-0.6c-0.3-0.2-0.5-0.5-0.6-0.8c-0.1-0.3-0.2-0.6-0.2-1v0
	c0-0.4,0.1-0.7,0.2-1.1c0.2-0.3,0.4-0.6,0.7-0.9c0.3-0.2,0.6-0.4,1-0.6c0.4-0.1,0.8-0.2,1.3-0.2c0.7,0,1.4,0.1,1.9,0.3
	c0.5,0.2,1.1,0.5,1.6,0.9l-0.5,0.6c-0.5-0.4-1-0.7-1.5-0.9c-0.5-0.2-1-0.3-1.6-0.3c-0.4,0-0.7,0.1-1,0.2c-0.3,0.1-0.6,0.2-0.8,0.4
	c-0.2,0.2-0.4,0.4-0.5,0.6c-0.1,0.2-0.2,0.5-0.2,0.7v0c0,0.3,0,0.5,0.1,0.7c0.1,0.2,0.2,0.4,0.5,0.6c0.2,0.2,0.5,0.3,0.9,0.5
	c0.4,0.1,0.9,0.3,1.5,0.4c1.2,0.2,2,0.6,2.6,1c0.5,0.4,0.8,1,0.8,1.8v0c0,0.4-0.1,0.8-0.3,1.1c-0.2,0.3-0.4,0.6-0.7,0.9
	c-0.3,0.2-0.6,0.4-1.1,0.6C49.2,31.4,48.7,31.5,48.2,31.5"/>
<polygon class="st0" points="54.1,21.2 54.8,21.2 54.8,25.9 61.4,25.9 61.4,21.2 62.1,21.2 62.1,31.4 61.4,31.4 61.4,26.6 
	54.8,26.6 54.8,31.4 54.1,31.4 "/>
<path class="st0" d="M69,21.1h0.7l4.7,10.3h-0.8l-1.3-2.8h-6l-1.3,2.8h-0.8L69,21.1z M72,27.8l-2.7-5.9l-2.7,5.9H72z"/>
<polygon class="st0" points="75.8,21.2 76.7,21.2 79.9,30.2 82.9,21.2 83.4,21.2 86.4,30.2 89.6,21.2 90.4,21.2 86.7,31.4 
	86.1,31.4 83.1,22.6 80.1,31.4 79.5,31.4 "/>
<polygon class="st0" points="0,35.1 2.8,35.1 2.8,35.4 0.3,35.4 0.3,36.9 2.5,36.9 2.5,37.2 0.3,37.2 0.3,38.7 2.8,38.7 2.8,39 
	0,39 "/>
<polygon class="st0" points="7.1,37 5.6,35.1 5.9,35.1 7.3,36.8 8.6,35.1 8.9,35.1 7.4,37 9,39 8.6,39 7.3,37.2 5.9,39 5.5,39 "/>
<polygon class="st0" points="12,35.1 14.7,35.1 14.7,35.4 12.2,35.4 12.2,36.9 14.5,36.9 14.5,37.2 12.2,37.2 12.2,38.7 14.7,38.7 
	14.7,39 12,39 "/>
<path class="st0" d="M19.5,39.1c-0.3,0-0.5-0.1-0.8-0.2c-0.2-0.1-0.4-0.2-0.6-0.4c-0.2-0.2-0.3-0.4-0.4-0.6
	c-0.1-0.2-0.1-0.5-0.1-0.8v0c0-0.3,0-0.5,0.1-0.8c0.1-0.2,0.2-0.5,0.4-0.6c0.2-0.2,0.4-0.3,0.6-0.4c0.2-0.1,0.5-0.2,0.8-0.2
	c0.2,0,0.3,0,0.5,0c0.1,0,0.3,0.1,0.4,0.1c0.1,0.1,0.2,0.1,0.3,0.2c0.1,0.1,0.2,0.2,0.3,0.3l-0.2,0.2c-0.1-0.1-0.2-0.2-0.3-0.2
	c-0.1-0.1-0.2-0.1-0.3-0.2c-0.1,0-0.2-0.1-0.3-0.1c-0.1,0-0.3,0-0.4,0c-0.2,0-0.4,0-0.6,0.1c-0.2,0.1-0.4,0.2-0.5,0.4
	c-0.1,0.2-0.3,0.3-0.3,0.6c-0.1,0.2-0.1,0.4-0.1,0.7v0c0,0.2,0,0.5,0.1,0.7c0.1,0.2,0.2,0.4,0.3,0.6c0.1,0.2,0.3,0.3,0.5,0.4
	c0.2,0.1,0.4,0.1,0.7,0.1c0.3,0,0.5-0.1,0.7-0.2c0.2-0.1,0.4-0.3,0.6-0.5l0.2,0.2c-0.1,0.1-0.2,0.2-0.3,0.3
	c-0.1,0.1-0.2,0.2-0.4,0.2C20.3,38.9,20.2,39,20,39C19.9,39,19.7,39.1,19.5,39.1"/>
<path class="st0" d="M25.5,39c-0.2,0-0.4,0-0.6-0.1c-0.2-0.1-0.4-0.2-0.5-0.3c-0.1-0.1-0.3-0.3-0.3-0.5c-0.1-0.2-0.1-0.4-0.1-0.7
	v-2.3h0.3v2.2c0,0.5,0.1,0.8,0.3,1.1c0.2,0.3,0.6,0.4,1,0.4c0.2,0,0.4,0,0.5-0.1c0.2-0.1,0.3-0.1,0.4-0.3c0.1-0.1,0.2-0.3,0.3-0.4
	c0.1-0.2,0.1-0.4,0.1-0.6v-2.3h0.3v2.2c0,0.3,0,0.5-0.1,0.7c-0.1,0.2-0.2,0.4-0.3,0.5c-0.1,0.1-0.3,0.3-0.5,0.3
	C26,39,25.8,39,25.5,39"/>
<polygon class="st0" points="31.4,35.4 30,35.4 30,35.1 33,35.1 33,35.4 31.7,35.4 31.7,39 31.4,39 "/>
<rect x="36.1" y="35.1" class="st0" width="0.3" height="3.9"/>
<polygon class="st0" points="39.3,35.1 39.6,35.1 41.2,38.7 42.7,35.1 43,35.1 41.3,39 41,39 "/>
<polygon class="st0" points="45.9,35.1 48.7,35.1 48.7,35.4 46.2,35.4 46.2,36.9 48.4,36.9 48.4,37.2 46.2,37.2 46.2,38.7 
	48.7,38.7 48.7,39 45.9,39 "/>
<path class="st0" d="M56.9,39c-0.3,0-0.6-0.1-0.8-0.2s-0.5-0.3-0.7-0.5l0.2-0.2c0.1,0.1,0.2,0.2,0.3,0.3c0.1,0.1,0.2,0.1,0.3,0.2
	c0.1,0,0.2,0.1,0.3,0.1c0.1,0,0.3,0,0.4,0s0.3,0,0.4-0.1c0.1,0,0.2-0.1,0.3-0.2c0.1-0.1,0.2-0.2,0.2-0.2c0-0.1,0.1-0.2,0.1-0.3v0
	c0-0.1,0-0.2,0-0.3c0-0.1-0.1-0.2-0.2-0.2c-0.1-0.1-0.2-0.1-0.3-0.2c-0.1-0.1-0.3-0.1-0.5-0.1c-0.2,0-0.4-0.1-0.6-0.2
	c-0.2-0.1-0.3-0.1-0.4-0.2c-0.1-0.1-0.2-0.2-0.2-0.3c0-0.1-0.1-0.2-0.1-0.4v0c0-0.1,0-0.3,0.1-0.4c0.1-0.1,0.2-0.2,0.3-0.3
	c0.1-0.1,0.2-0.2,0.4-0.2c0.2-0.1,0.3-0.1,0.5-0.1c0.3,0,0.5,0,0.7,0.1c0.2,0.1,0.4,0.2,0.6,0.4l-0.2,0.2c-0.2-0.2-0.4-0.3-0.6-0.3
	c-0.2-0.1-0.4-0.1-0.6-0.1c-0.1,0-0.3,0-0.4,0.1c-0.1,0-0.2,0.1-0.3,0.2c-0.1,0.1-0.1,0.1-0.2,0.2c0,0.1-0.1,0.2-0.1,0.3v0
	c0,0.1,0,0.2,0,0.3c0,0.1,0.1,0.2,0.2,0.2c0.1,0.1,0.2,0.1,0.3,0.2c0.1,0.1,0.3,0.1,0.6,0.2c0.5,0.1,0.8,0.2,1,0.4
	c0.2,0.2,0.3,0.4,0.3,0.7v0c0,0.2,0,0.3-0.1,0.4c-0.1,0.1-0.2,0.2-0.3,0.3c-0.1,0.1-0.2,0.2-0.4,0.2C57.2,39,57,39,56.9,39"/>
<polygon class="st0" points="61.2,35.1 64,35.1 64,35.4 61.5,35.4 61.5,36.9 63.7,36.9 63.7,37.2 61.5,37.2 61.5,38.7 64,38.7 
	64,39 61.2,39 "/>
<path class="st0" d="M68.5,35.1h0.3l1.8,3.9h-0.3l-0.5-1.1h-2.3L67,39h-0.3L68.5,35.1z M69.7,37.6l-1-2.3l-1,2.3H69.7z"/>
<path class="st0" d="M73.5,35.1h1.6c0.2,0,0.5,0,0.6,0.1c0.2,0.1,0.3,0.2,0.5,0.3c0.1,0.1,0.2,0.2,0.2,0.3c0.1,0.1,0.1,0.3,0.1,0.4
	v0c0,0.2,0,0.3-0.1,0.4c-0.1,0.1-0.1,0.2-0.2,0.3c-0.1,0.1-0.2,0.2-0.4,0.2c-0.1,0.1-0.3,0.1-0.5,0.1l1.3,1.7h-0.4l-1.2-1.6h0h-1.3
	V39h-0.3V35.1z M75.1,37.1c0.2,0,0.3,0,0.5-0.1s0.3-0.1,0.4-0.2c0.1-0.1,0.2-0.2,0.2-0.3c0.1-0.1,0.1-0.2,0.1-0.4v0
	c0-0.3-0.1-0.5-0.3-0.6c-0.2-0.2-0.5-0.2-0.8-0.2h-1.3v1.8H75.1z"/>
<path class="st0" d="M81.4,39.1c-0.3,0-0.5-0.1-0.8-0.2c-0.2-0.1-0.4-0.2-0.6-0.4c-0.2-0.2-0.3-0.4-0.4-0.6
	c-0.1-0.2-0.1-0.5-0.1-0.8v0c0-0.3,0-0.5,0.1-0.8c0.1-0.2,0.2-0.5,0.4-0.6c0.2-0.2,0.4-0.3,0.6-0.4c0.2-0.1,0.5-0.2,0.8-0.2
	c0.2,0,0.3,0,0.5,0c0.1,0,0.3,0.1,0.4,0.1c0.1,0.1,0.2,0.1,0.3,0.2c0.1,0.1,0.2,0.2,0.3,0.3l-0.2,0.2c-0.1-0.1-0.2-0.2-0.3-0.2
	c-0.1-0.1-0.2-0.1-0.3-0.2c-0.1,0-0.2-0.1-0.3-0.1c-0.1,0-0.3,0-0.4,0c-0.2,0-0.4,0-0.7,0.1c-0.2,0.1-0.4,0.2-0.5,0.4
	c-0.1,0.2-0.3,0.3-0.3,0.6c-0.1,0.2-0.1,0.4-0.1,0.7v0c0,0.2,0,0.5,0.1,0.7c0.1,0.2,0.2,0.4,0.3,0.6c0.1,0.2,0.3,0.3,0.5,0.4
	c0.2,0.1,0.4,0.1,0.6,0.1c0.3,0,0.5-0.1,0.7-0.2s0.4-0.3,0.6-0.5l0.2,0.2c-0.1,0.1-0.2,0.2-0.3,0.3s-0.2,0.2-0.3,0.2
	C82.2,38.9,82,39,81.9,39C81.7,39,81.6,39.1,81.4,39.1"/>
<polygon class="st0" points="85.9,35.1 86.2,35.1 86.2,36.9 88.6,36.9 88.6,35.1 88.9,35.1 88.9,39 88.6,39 88.6,37.2 86.2,37.2 
	86.2,39 85.9,39 "/>
<line class="st1" x1="98.7" y1="0" x2="98.7" y2="41.8"/>
</svg>
