<?xml version="1.0" encoding="utf-8"?>
<!-- Generator: Adobe Illustrator 19.0.0, SVG Export Plug-In . SVG Version: 6.00 Build 0)  -->
<svg version="1.1" id="Шар_1" xmlns="http://www.w3.org/2000/svg" xmlns:xlink="http://www.w3.org/1999/xlink" x="0px" y="0px"
	 viewBox="0 0 195.5 41.8" style="enable-background:new 0 0 195.5 41.8;" xml:space="preserve">
<style type="text/css">
	.st0{clip-path:url(#SVGID_2_);fill:#FFFFFF;}
	.st1{clip-path:url(#SVGID_2_);fill:#981B49;}
	.st2{clip-path:url(#SVGID_2_);fill:#662D91;}
	.st3{clip-path:url(#SVGID_2_);fill:#F15A29;}
	.st4{clip-path:url(#SVGID_2_);}
	.st5{clip-path:url(#SVGID_2_);fill:none;stroke:#FFFFFF;stroke-miterlimit:10;}
</style>
<g>
	<defs>
		<rect id="SVGID_1_" y="0" width="195.5" height="41.8"/>
	</defs>
	<clipPath id="SVGID_2_">
		<use xlink:href="#SVGID_1_"  style="overflow:visible;"/>
	</clipPath>
	<path class="st0" d="M28.7,18.7c-0.8,0-1.5-0.1-2.3-0.4c-0.7-0.3-1.4-0.7-2-1.2l1.1-1.3c0.5,0.4,1,0.8,1.5,1
		c0.5,0.2,1.1,0.3,1.7,0.3c0.6,0,1-0.1,1.3-0.3c0.3-0.2,0.5-0.5,0.5-0.9v0c0-0.2,0-0.3-0.1-0.5c-0.1-0.1-0.2-0.3-0.4-0.4
		c-0.2-0.1-0.4-0.2-0.7-0.4c-0.3-0.1-0.7-0.2-1.2-0.3c-0.5-0.1-1-0.3-1.5-0.4c-0.4-0.2-0.8-0.4-1.1-0.6c-0.3-0.2-0.5-0.5-0.7-0.8
		c-0.1-0.3-0.2-0.7-0.2-1.2v0c0-0.4,0.1-0.8,0.3-1.2c0.2-0.4,0.4-0.7,0.7-0.9c0.3-0.3,0.7-0.5,1.1-0.6c0.4-0.1,0.9-0.2,1.4-0.2
		c0.7,0,1.4,0.1,2,0.3c0.6,0.2,1.2,0.5,1.7,1l-1,1.4c-0.5-0.3-0.9-0.6-1.4-0.8c-0.5-0.2-0.9-0.3-1.4-0.3c-0.5,0-0.9,0.1-1.2,0.3
		c-0.3,0.2-0.4,0.5-0.4,0.9v0c0,0.2,0,0.4,0.1,0.5c0.1,0.2,0.2,0.3,0.4,0.4c0.2,0.1,0.4,0.2,0.7,0.3c0.3,0.1,0.7,0.2,1.2,0.3
		c0.5,0.1,1,0.3,1.4,0.5c0.4,0.2,0.8,0.4,1,0.6c0.3,0.2,0.5,0.5,0.6,0.8c0.1,0.3,0.2,0.7,0.2,1.1v0c0,0.5-0.1,0.9-0.3,1.3
		c-0.2,0.4-0.4,0.7-0.7,1c-0.3,0.3-0.7,0.5-1.1,0.6C29.8,18.7,29.3,18.7,28.7,18.7"/>
	<polygon class="st0" points="34.5,8.4 36.4,8.4 39.5,13.2 42.6,8.4 44.5,8.4 44.5,18.6 42.7,18.6 42.7,11.3 39.5,16.1 39.4,16.1 
		36.2,11.3 36.2,18.6 34.5,18.6 	"/>
	<polygon class="st0" points="50.1,14.6 46,8.4 48.1,8.4 51,12.9 53.9,8.4 55.9,8.4 51.9,14.5 51.9,18.6 50.1,18.6 	"/>
	<polygon class="st0" points="60,10.1 56.8,10.1 56.8,8.4 65,8.4 65,10.1 61.8,10.1 61.8,18.6 60,18.6 	"/>
	<polygon class="st0" points="66.9,8.4 68.7,8.4 68.7,12.7 73.6,12.7 73.6,8.4 75.3,8.4 75.3,18.6 73.6,18.6 73.6,14.3 68.7,14.3 
		68.7,18.6 66.9,18.6 	"/>
	<path class="st0" d="M88.3,17c-0.5,0.6-1,1-1.6,1.3c-0.6,0.3-1.2,0.5-1.9,0.5c-0.4,0-0.9-0.1-1.2-0.2c-0.4-0.1-0.7-0.3-1-0.6
		s-0.5-0.5-0.7-0.9c-0.2-0.3-0.2-0.7-0.2-1.1v0c0-0.7,0.2-1.3,0.7-1.8c0.5-0.5,1.1-0.9,1.9-1.2c-0.4-0.4-0.7-0.8-0.9-1.2
		c-0.2-0.3-0.3-0.7-0.3-1.2v0c0-0.3,0.1-0.6,0.2-0.9c0.1-0.3,0.3-0.5,0.5-0.7c0.2-0.2,0.5-0.4,0.8-0.5c0.3-0.1,0.7-0.2,1-0.2
		c0.3,0,0.6,0.1,0.9,0.2c0.3,0.1,0.5,0.3,0.7,0.5c0.2,0.2,0.4,0.4,0.5,0.7c0.1,0.3,0.2,0.6,0.2,0.9v0c0,0.6-0.2,1.2-0.7,1.6
		c-0.4,0.4-1.1,0.8-1.8,1l2.7,2.7c0.3-0.3,0.5-0.7,0.7-1.1c0.2-0.4,0.4-0.9,0.6-1.3l0.7,0.3c-0.2,0.5-0.5,1-0.7,1.5
		s-0.5,0.9-0.8,1.2l1.9,1.9l-0.6,0.5L88.3,17z M84.9,18.1c0.6,0,1.1-0.1,1.6-0.4c0.5-0.3,0.9-0.7,1.4-1.2l-3-3.1
		C84,13.7,83.4,14,83,14.5c-0.4,0.4-0.6,0.9-0.6,1.4v0c0,0.3,0.1,0.6,0.2,0.9c0.1,0.3,0.3,0.5,0.5,0.7c0.2,0.2,0.5,0.4,0.8,0.5
		C84.2,18,84.5,18.1,84.9,18.1 M85.2,12.7c1.5-0.5,2.2-1.2,2.2-2.1v0c0-0.5-0.2-0.8-0.5-1.1c-0.3-0.3-0.7-0.5-1.2-0.5
		c-0.5,0-0.9,0.2-1.3,0.5c-0.3,0.3-0.5,0.7-0.5,1.2v0c0,0.2,0,0.3,0.1,0.5c0,0.1,0.1,0.3,0.2,0.5c0.1,0.2,0.2,0.3,0.4,0.5
		C84.7,12.2,84.9,12.4,85.2,12.7"/>
	<path class="st0" d="M0.9,21.2h4.2c0.6,0,1.1,0.1,1.5,0.2c0.4,0.2,0.8,0.4,1.1,0.7c0.4,0.4,0.7,1,0.7,1.6v0c0,0.3-0.1,0.7-0.2,0.9
		c-0.1,0.3-0.2,0.5-0.4,0.7c-0.2,0.2-0.3,0.4-0.6,0.5c-0.2,0.1-0.4,0.2-0.6,0.3c0.3,0.1,0.6,0.2,0.9,0.3c0.3,0.1,0.5,0.3,0.7,0.5
		c0.2,0.2,0.4,0.4,0.5,0.7C8.9,27.9,9,28.2,9,28.6v0c0,0.4-0.1,0.8-0.3,1.2c-0.2,0.3-0.4,0.6-0.7,0.9c-0.3,0.2-0.7,0.4-1.1,0.6
		c-0.4,0.1-0.9,0.2-1.5,0.2H0.9V21.2z M5,25.9c0.4,0,0.7,0,1-0.1c0.3-0.1,0.6-0.2,0.8-0.4c0.2-0.2,0.4-0.4,0.5-0.7
		c0.1-0.3,0.2-0.6,0.2-0.9v0c0-0.6-0.2-1-0.7-1.4c-0.4-0.3-1.1-0.5-1.9-0.5H1.7v4H5z M5.4,30.7c0.9,0,1.6-0.2,2.1-0.6
		c0.5-0.4,0.8-0.9,0.8-1.5v0c0-0.6-0.3-1.1-0.8-1.5c-0.5-0.3-1.3-0.5-2.3-0.5H1.7v4.1H5.4z"/>
	<path class="st0" d="M11.4,21.2h4.3c0.6,0,1.2,0.1,1.7,0.3c0.5,0.2,0.9,0.4,1.2,0.7c0.2,0.2,0.4,0.5,0.6,0.9c0.1,0.3,0.2,0.7,0.2,1
		v0c0,0.4-0.1,0.8-0.2,1.1c-0.2,0.3-0.4,0.6-0.6,0.9c-0.3,0.2-0.6,0.4-0.9,0.6c-0.4,0.1-0.8,0.3-1.2,0.3l3.4,4.3h-1l-3.2-4.2h0h-3.3
		v4.2h-0.8V21.2z M15.6,26.5c0.4,0,0.8-0.1,1.2-0.2c0.4-0.1,0.7-0.3,0.9-0.5c0.3-0.2,0.5-0.4,0.6-0.7c0.2-0.3,0.2-0.6,0.2-1v0
		c0-0.7-0.3-1.2-0.8-1.6c-0.5-0.4-1.2-0.6-2.2-0.6h-3.5v4.6H15.6z"/>
	<path class="st0" d="M25.8,21.1h0.7l4.7,10.3h-0.8l-1.3-2.8h-6l-1.3,2.8h-0.8L25.8,21.1z M28.8,27.8l-2.7-5.9l-2.7,5.9H28.8z"/>
	<path class="st0" d="M33.4,21.2h3.4c0.8,0,1.5,0.1,2.2,0.4c0.7,0.3,1.2,0.6,1.7,1.1c0.5,0.5,0.8,1,1.1,1.6c0.3,0.6,0.4,1.3,0.4,2v0
		c0,0.7-0.1,1.4-0.4,2c-0.3,0.6-0.6,1.2-1.1,1.6c-0.5,0.5-1.1,0.8-1.7,1.1c-0.7,0.3-1.4,0.4-2.2,0.4h-3.4V21.2z M36.8,30.7
		c0.7,0,1.3-0.1,1.9-0.3c0.6-0.2,1.1-0.5,1.5-0.9c0.4-0.4,0.7-0.9,0.9-1.4c0.2-0.5,0.3-1.1,0.3-1.7v0c0-0.6-0.1-1.2-0.3-1.7
		c-0.2-0.5-0.5-1-0.9-1.4c-0.4-0.4-0.9-0.7-1.5-0.9c-0.6-0.2-1.2-0.4-1.9-0.4h-2.6v8.8H36.8z"/>
	<path class="st0" d="M48.2,31.5c-0.8,0-1.5-0.1-2.2-0.4c-0.7-0.3-1.3-0.7-1.9-1.2l0.5-0.6c0.3,0.3,0.6,0.5,0.8,0.7
		c0.3,0.2,0.6,0.3,0.8,0.5c0.3,0.1,0.6,0.2,0.9,0.3s0.7,0.1,1,0.1c0.4,0,0.7,0,1-0.2c0.3-0.1,0.6-0.2,0.8-0.4
		c0.2-0.2,0.4-0.4,0.5-0.6c0.1-0.2,0.2-0.5,0.2-0.8v0c0-0.3,0-0.5-0.1-0.7c-0.1-0.2-0.2-0.4-0.5-0.6c-0.2-0.2-0.5-0.3-0.9-0.5
		c-0.4-0.1-0.8-0.3-1.4-0.4c-0.6-0.1-1.1-0.3-1.6-0.4c-0.4-0.2-0.8-0.4-1.1-0.6c-0.3-0.2-0.5-0.5-0.6-0.8c-0.1-0.3-0.2-0.6-0.2-1v0
		c0-0.4,0.1-0.7,0.2-1.1c0.2-0.3,0.4-0.6,0.7-0.9c0.3-0.2,0.6-0.4,1-0.6c0.4-0.1,0.8-0.2,1.3-0.2c0.7,0,1.4,0.1,1.9,0.3
		c0.5,0.2,1.1,0.5,1.6,0.9l-0.5,0.6c-0.5-0.4-1-0.7-1.5-0.9c-0.5-0.2-1-0.3-1.6-0.3c-0.4,0-0.7,0.1-1,0.2c-0.3,0.1-0.6,0.2-0.8,0.4
		c-0.2,0.2-0.4,0.4-0.5,0.6c-0.1,0.2-0.2,0.5-0.2,0.7v0c0,0.3,0,0.5,0.1,0.7c0.1,0.2,0.2,0.4,0.5,0.6c0.2,0.2,0.5,0.3,0.9,0.5
		c0.4,0.1,0.9,0.3,1.5,0.4c1.2,0.2,2,0.6,2.6,1c0.5,0.4,0.8,1,0.8,1.8v0c0,0.4-0.1,0.8-0.3,1.1c-0.2,0.3-0.4,0.6-0.7,0.9
		c-0.3,0.2-0.6,0.4-1.1,0.6C49.2,31.4,48.7,31.5,48.2,31.5"/>
	<polygon class="st0" points="54.1,21.2 54.8,21.2 54.8,25.9 61.4,25.9 61.4,21.2 62.1,21.2 62.1,31.4 61.4,31.4 61.4,26.6 
		54.8,26.6 54.8,31.4 54.1,31.4 	"/>
	<path class="st0" d="M69,21.1h0.7l4.7,10.3h-0.8l-1.3-2.8h-6l-1.3,2.8h-0.8L69,21.1z M72,27.8l-2.7-5.9l-2.7,5.9H72z"/>
	<polygon class="st0" points="75.8,21.2 76.7,21.2 79.9,30.2 82.9,21.2 83.4,21.2 86.4,30.2 89.6,21.2 90.4,21.2 86.7,31.4 
		86.1,31.4 83.1,22.6 80.1,31.4 79.5,31.4 	"/>
	<path class="st1" d="M108.8,17c0,0,0.1,0,0.1,0c0,0-0.1-0.1-0.1-0.1C108.8,16.9,108.8,17,108.8,17"/>
	<path class="st1" d="M108.9,16.6c0,0.1,0,0.2-0.1,0.2c0.1,0,0.1,0.1,0.2,0.1c0.1,0,0.3-0.1,0.4-0.1
		C109.3,16.7,109.1,16.6,108.9,16.6"/>
	<path class="st1" d="M111.6,23c0.3-0.2-0.1-0.2-0.2-0.2C111.3,22.9,111,23.1,111.6,23"/>
	<path class="st1" d="M129.5,10.4c0,0-0.1-0.1-0.1,0c0,0,0-0.1,0-0.1c-0.1-0.1-0.2-0.2-0.3-0.3c0,0,0,0,0,0c0,0,0,0,0,0
		c-0.1-0.1-0.2-0.2-0.4-0.3c-0.1,0-0.2,0.1-0.3,0.2c0-0.1,0.2-0.2,0.2-0.3c0,0,0,0,0,0l-0.4,0c0-0.1,0.1-0.1,0.1-0.2
		c-0.2-0.1-0.3-0.2-0.5-0.3c-0.5-0.3-1-0.6-1.5-0.9c-0.1,0.1-0.3,0.2-0.4,0.3c-0.4-0.6-1.4-0.7-1.7-1.1c-0.6-0.2-1.1-0.3-1.7-0.3
		c-0.1,0.3-0.2,0.6-0.2,0.9c0.2-0.2,0.8-0.6,0.8,0c-0.3,0.2-0.7,0.3-0.7,0.7c-0.1-0.7,0.4-0.1,0.2-0.8c-0.2,0-0.3,0.2-0.3,0.3
		c0.1-0.3-0.1-0.5-0.1-0.7c-0.5,0-0.8-0.4-1.4-0.4c0,0.1,0,0.1,0,0l0,0c0,0,0,0,0-0.1c-0.1,0-0.2,0-0.4,0c-0.2,0.4-0.3,1-0.2,1.3
		c-0.3,0-0.4-0.3-0.6,0c0.5,0.6-0.1-0.1,0,0.6c-0.2,0.1-0.1-0.3-0.3-0.5c0,0.1-0.1,0.3-0.1,0.5c0,0.1,0.1,0.2,0.2,0.2
		c-0.1,0-0.2-0.1-0.2-0.2c-0.2-0.4,0-1.2-0.1-1.7c-0.1,0-0.3,0.1-0.4,0.1l0.1,0.3l-0.1,0l0-0.3c-0.1,0-0.3,0.1-0.4,0.1
		c0.2,0.9,0.5,1.9,0.8,2.3c0.1,0.4-0.3-0.4-0.4-0.4c-0.5-0.6-0.3,0.6-0.6,0.5l0.1-0.4c-0.1-0.1-0.4,0.2-0.4,0.4
		c-0.1-0.2-0.2-1.2-0.4-1.4c-0.6,0.1-0.5,1.5-0.1,2c0,0,0.1-0.2,0.2-0.5c0.1-0.2,0.2-0.5,0.2-0.5c0.2,0.5-0.3,0.7,0.1,1.3l-0.6,0.1
		c0.1,0,0.2-0.3,0-0.5c-0.2,0.1-0.2,0-0.5-0.2c0-0.4-0.1-1.3-0.2-2.1c-0.2,0.1-0.4,0.2-0.6,0.3c0.1,0.7,0.4,1.5,0.5,1.8
		c-0.3,0-0.9-1.1-0.9-1.3c-0.6,0.3,0.4,1.7-0.1,1.9l0.3,0.1c0,0.2-0.5,0.2-0.4,0.4c-0.3-0.2-0.8-0.7-0.9-1c0,0,0.1,0.3,0.2,0.6
		c0.1,0.3,0.2,0.6,0.2,0.6c0-0.1-0.7-0.8-0.8-1c-0.2,0.1,0.5,1.1,0.7,1.1c-0.7-0.3-0.4-0.1-1.2-0.4c0,0.1,0.7,0.7,0.9,0.7
		c0,0.3-0.2,0.4-0.3,0.4c0,0,0,0,0,0l0,0c-0.2,0-0.3,0,0,0.5c0,0-0.3-0.3-0.5-0.6c-0.3-0.3-0.5-0.6-0.5-0.6l1,0.8l0,0
		c0-0.4-0.7-1-1.3-1.5c-0.1,0.1-0.1,0.2-0.2,0.2c0.1,0.2,0.2,0.3,0.3,0.5c0.4,0.7,0.8,1.3,0.8,1.3c-0.1-0.1-0.8-0.8-0.9-0.8
		c0.6,0.6,0.1,1.5-0.3,1.8l0-0.1c-0.2-0.2-0.6,0-0.5,0.3c-0.1-0.1-0.1-0.1,0-0.2c-0.8,0,0.9,1,0.1,0.9c0.2-0.2-0.1-0.4-0.4-0.6
		c0.2,0.4-0.4,0.8,0.6,1.1c-0.3,0-0.2,0.2-0.7,0c0,0,0.1,0.2,0.2,0.4c0.1,0.2,0.2,0.4,0.2,0.4c-0.1-0.1-0.4-0.2-0.5-0.1
		c0.2-0.3-0.5-0.9,0.2-0.9c-0.6-0.3-0.9-0.3-1.4-0.6c0,0.8,0.9,1.5,1.5,2.1l-0.6,0.4l0.3,0.1l-0.7-0.1c0.1,0.1,0.3,0.2,0.2,0.2
		c-0.1,0-0.2,0-0.3-0.1c0,0.1,0.1,0.1,0.2,0.2c0.1,0,0.2,0,0.3,0c-0.1,0-0.2,0-0.3,0c-0.4,0-0.8-0.2-1.2-0.4c0,0-0.1,0-0.1,0
		c0.4,0.4,0.9,0.8,1.5,0.6l0.3-0.2c-0.1,0.1-0.2,0.1-0.3,0.2l-0.5,0.3c0.6,0.5,0.5,0.4,1,0.9c-0.3,0-0.5-0.1-0.6-0.1
		c0.4,0.2,0.1,0.4-0.1,0.6c-0.3,0.2-0.5,0.3-0.1,0.4c0.2,0.3,0.6,0.1,0.8,0.3c-0.1,0-0.2,0-0.3,0l0.5,0.2c-0.2,0.1-0.4-0.2-0.6,0.1
		c0.4,0.4,0.7,0.5,0.5,0.9c0.2,0.4,1-0.4,0.9,0c-0.4,0.1-0.9,0.3-0.9,0.5c0.3,0.1,0.6,0,0.9,0.1l-0.6,0.2c0.1,0.2,0.2,0.3-0.2,0.5
		c0.3,0.1,0.3,0.2,0.2,0.3c0.4,0.2,1.2-0.6,1.4-0.8c-0.4,0.4,0,0.5-0.7,0.9l-0.3-0.2c-0.6,0.8,1,0.1-0.1,0.9c0-0.2-0.5-0.3-0.7,0
		l0.4,0.1c-0.1,0.1-0.2-0.1-0.3,0.1c0.2,0,0.5,0,0.8,0l0.2-0.1c0,0-0.1,0.1-0.2,0.1l0,0c0,0,0.3,0.4,0.3,0.4c0-0.1-0.3,0-0.2,0.1
		l0.5,0.1c-0.2,0-0.3,0.2-0.3,0.4c0.1,0.5,1.4-0.5,1,0.1c0,0-0.1,0-0.1,0l-0.1,0.3c0.6-0.4,0.7-0.2,0.9-0.1c0.2,0.2,0.4,0.3,0.9-0.1
		c-0.3,0.5-0.2,0.2-0.9,0.4l-0.1,0.4c-0.1,0-0.1-0.2-0.3-0.2c-0.2,0.6,0.6,0.4,0.9,0.3c-0.1,0.2-0.8,0.7-0.4,0.8
		c0.6,0.2,0.6-0.8,1-0.7l-0.3,0.7c0.6-0.1,0.6,0.4,0.8,0.7c0.1,0,0.2,0,0.2-0.1c0,0,0,0,0,0l0.1-0.1c0.1-0.2,0.2-0.4,0.3-0.3
		l-0.3,0.3c0,0,0,0-0.1,0.1c0.1,0.5,1-0.2,1.1,0.1c-0.1,0.1-0.1,0.5-0.1,0.6l0.6-0.2c-0.3,0.1-0.4,0.5-0.6,0.8
		c0.2,0,0.3-0.1,0.4-0.1c-0.1,0.1-0.2,0.2-0.2,0.4c0,0,0.2-0.1,0.4-0.2c0.2-0.1,0.4-0.2,0.4-0.2c0-0.1,0-0.1-0.1-0.1
		c0.1,0,0.5-0.1,0.5,0.3c-0.1,0.1-0.2,0.3-0.2,0.4c0-0.5-0.2-0.1-0.4,0.1c0.4,0.1,0,0.1,0.1,0.5c0.3,0.1,0.5-0.4,0.6-0.7
		c0.2,0.2,0.3,0.4,0.7,0l-0.2,0.5l0.3-0.1l-0.4,0.6c0.5,0.5,0.3-0.9,0.8-0.5l-0.1,0.5c0.3-0.2,0.5-1,0.5-0.3
		c0.2-0.3-0.3-0.7,0.2-0.8c0.1,0.3,0.2,0.5,0.4,0.6c0.2-0.2-0.1-0.6-0.2-0.5c0.7-0.2,0.4,1.7,1.1,1.1c-0.2-0.3,0.2-0.9-0.3-0.9
		c0.2-0.3,0.5,0.7,0.8,0.2l-0.2,0.6c0.1,0,0.2-0.2,0.3-0.3l0,0.5c0.3-0.8,0.7,0.4,0.8-0.8c0,0.9,0.2-0.1,0.4,0.2
		c-0.2,0.6-0.8,0.1-0.8,0.9c0.2,0.2,0.2-0.2,0.4,0c0.1-0.1,0.1-0.2,0,0c0,0,0,0,0,0c-0.1,0.1-0.2,0.4-0.2,0.5
		c0.5,0.4,0.7-0.6,0.9-0.8l-0.5,0.3c-0.1-0.8,0.2-0.2,0.2-0.8c0.3,0.4,0.4-0.3,0.6-0.1c0,0,0,0.1-0.1,0.1c0.5-0.1,1,1.1,1.2,1
		c0.3,0,0.5-0.5,0.2-0.8c0.1-0.3-0.6,0.5-0.6-0.6c0.3,0.5,0.4,0.4,0.6,0.1c0.1-0.2,0.3-0.5,0.7-0.3c-0.1,0.5,0.4,0.5,0.3,0.9
		c0.3-0.2,0.2-0.4,0.2-0.8l0.3,0.3c0-0.9-0.3-0.7,0-1.4c0,0.4,0.5,0.3,0.5,0.6c0.2-0.1,0.3-0.3,0.2-0.5l0,0.1
		c0.4-0.5,0.7,0.1,0.9-0.6l-0.2-0.1c0.1-0.9,1.1-1.3,1.3-2.1l-0.3,0.1c0.1,0,0-0.6,0.4-0.6c0,0,0,0,0.1,0c0,0,0,0-0.1,0
		c0,0,0,0.2,0,0.2c0.2,0.1,0.6,0.3,0.7,0.2l-0.3-0.3l0.3,0.1c0.2-0.2-0.5-0.2-0.4-0.5c0.5,0.2,0.7,0,0.9-0.3
		c0.2-0.3,0.3-0.6,0.8-0.5c-0.6-0.5-0.3,0.4-0.9-0.1c0.1,0,0.3,0,0.4-0.1l-0.5-0.1c0.6-0.6,1.1-0.8,1.2-1.6l0.1,0.1
		c0.2-0.2,0.2-0.4-0.2-0.6c0.2,0,0.3,0.2,0.5,0.1c-0.6-0.4-0.3-0.5,0-0.7c0.3-0.2,0.6-0.4,0.2-0.6c0.4,0.1,0.9,0,1.3-0.2
		c0-0.2,0-0.5,0-0.7C133.4,15.8,131.9,12.6,129.5,10.4 M112.1,22.1c0-0.1,0-0.1,0.2-0.2l0.2,0L112.1,22.1z M112.6,24.7l0.5-0.4l0,0
		L112.6,24.7z M114.8,25.4C114.7,25.4,114.7,25.4,114.8,25.4C114.7,25.4,114.8,25.4,114.8,25.4c0.1,0,0.2,0,0.2,0.1
		C114.5,26,114.8,25.6,114.8,25.4 M115.7,11.3c-0.4-0.5-0.3-0.4-0.2-0.8c0,0,0-0.1,0-0.2c0,0.1,0,0.1,0,0.2c0,0.2,0.3,0.1,0.4,0.3
		C115.4,10.7,116.1,11.4,115.7,11.3 M123,8.7c-0.4,0,0.1-0.3,0.1-0.4C123.4,8.5,123.1,8.6,123,8.7 M123.9,8.6l0.2-0.6
		c0,0.2,0,0.3,0,0.4L123.9,8.6z M127.2,8.7l0.2,0.1l0,0.1L127.2,8.7z"/>
	<path class="st1" d="M110,16.5c-0.1,0.1-0.2,0.2-0.2,0.2C110,16.7,110.1,16.6,110,16.5"/>
	<path class="st2" d="M165.8,20.9v-0.6C165.6,20.5,165.6,20.7,165.8,20.9"/>
	<path class="st2" d="M165.8,21C165.8,21,165.8,21,165.8,21L165.8,21L165.8,21z"/>
	<path class="st2" d="M156.6,28.8l0.1,0.5c0.2-0.1,0.4-0.2,0.5-0.2c-0.1,0-0.1-0.1-0.2-0.2C156.9,28.8,156.8,28.7,156.6,28.8"/>
	<path class="st2" d="M144.5,31c0,0-0.1,0.1-0.1,0.2c0,0.1-0.1,0.1-0.1,0.2h0.3C144.6,31.3,144.6,31.1,144.5,31"/>
	<path class="st2" d="M163.5,26.2L163.5,26.2C163.3,26.3,163.3,26.4,163.5,26.2"/>
	<path class="st2" d="M164.8,30.9c-0.1,0.1-0.1,0.2,0,0.4h0.5C165.1,31.3,164.9,31.1,164.8,30.9"/>
	<path class="st2" d="M165.7,27.4c0.2-0.2,0-0.5-0.2-0.7l-0.3,0.4c0-0.3,0.5-0.6,0.3-1.1c-0.4,0.1-0.9-0.3-1.5,0.1
		c-0.3,0.5-0.1,0.6,0.3,0.9c0.3,0.2,0.7,0.5,0.6,0.9c0.1,0.1-0.6-0.3-0.4,0.2c0.3,0.4,0.7,0.9,1.3,1.4v-2.3
		C165.8,27.3,165.7,27.3,165.7,27.4 M165.5,28.7l-0.1-0.4c0.2,0,0.2,0.1,0.4,0.3C165.7,28.7,165.6,28.8,165.5,28.7"/>
	<polygon class="st2" points="163.2,18.8 163.2,18.8 163.2,18.8 	"/>
	<path class="st2" d="M153.1,30.5l-0.4,0.9h0.4C153.1,31,153.1,30.7,153.1,30.5"/>
	<path class="st2" d="M163.5,18.9c-0.1,0-0.1,0-0.2,0C163.3,18.9,163.4,19.1,163.5,18.9"/>
	<path class="st2" d="M163.1,31.4c0-0.1-0.1-0.2-0.1-0.2c-0.1-0.2-0.4-0.5-0.6-0.7c-0.2-0.2-0.4-0.4-0.4-0.4c0,0.2-0.1,0.8-0.1,1.4
		h0.6c0-0.1,0-0.2,0-0.3c0-0.3,0-0.5,0-0.5l0.1,0.8H163.1z"/>
	<path class="st2" d="M165.1,8l0.3-0.1c-0.1,0.6-0.9,0-1.1,0.7l-0.9-0.7c0,0.2-0.1,0.6,0,0.7c0.1,0,0.2,0,0.3,0
		c-0.2,0.1-0.2,0.1-0.3,0c-0.2,0-0.4,0-0.1,0.4c-2.2-1.6-4.4-0.1-6.6-0.9c-0.1,0.1-0.1,0.3,0,0.4c-0.4-0.6-0.4,0.3-0.6,0.4L155.5,8
		c-0.2,0.3-0.1,0.5-0.1,0.7c-1.1,0.2-2.2-0.7-3.1-0.2c-0.3-0.3,0.1-0.7-0.3-0.8c0.5,0.9-1.1,0.4-0.8,1.1c-0.4-1-1.3-0.2-1.2-1.6
		c-0.4-0.1-0.4,0.6-0.2,0.7c-0.5-0.1-0.9-0.1-1.4,0.4c-0.3-0.3-2.4,0.3-2.8-0.7c0.3,0.7,0,0.3-0.3,0.6l0.3,0.6l-0.7-0.1
		c-0.1,0.1-0.1,0-0.1,0c-0.1,0,0-0.3-0.2-0.5c-0.3,0-0.2,0.3-0.3,0.6l0.1,0.1L144.4,9c0,0,0-0.2,0-0.3c0-0.2,0-0.4-0.3-0.5
		c0,0.2,0.1,0.9-0.1,0.5c0.2,0,0-0.4-0.2-0.5l-0.4,0c0,0,0.1,0.2,0.3,0.4c0.1,0.2,0.3,0.4,0.3,0.4c-0.3,0-0.6-0.1-1-0.2
		c-0.2,0.3-0.4,0.8-0.3,1.5c-0.6-0.2,0,0.7-1,0.7l0.1-0.1c-0.1-0.4-0.8,0.1-0.6,0.4c0.3-0.3,1,0.6,1.1-0.2l0.5,0.7
		c1.8,0.4-0.2,1.7,0.4,2.7c-0.1-0.1-0.2-0.1-0.2-0.1c0.6,0.9-0.5,2-0.2,2.2l-0.5,0.1c0.8,0.8,0.8,0.8,0.5,1.7c-0.1,0-0.2-0.1-0.3,0
		c0.4,0.2,0.7,0.4,0.6,1l-0.2,0l0.1,1c-1.5,0,0.9,1.6-0.7,1.9c0.5,0.2,0.6,0.9,0.8,1.2c0.1,0,0.2,0,0.3,0.1c-0.1,0-0.2,0-0.3-0.1
		c-0.1,0-0.1,0-0.2,0.1c0.8,0.4-0.3,1.1-0.2,1.5c0.2,0.3,0.5,0.2,0.7,0c-0.7,0.5,0.7,1.5,0.5,1.6c-0.1,0.4-0.6,0.1-0.9,0.2
		c0.1,0.6,1.4-0.1,0.8,0.7c-0.1-0.1-0.1-0.3-0.2-0.2c0,0.1-0.2,0.2-0.3,0.2c-0.2,0-0.4,0.1-0.6,0.2c-0.4,0.2-0.8,0.4-0.6,0.5
		l0.3-0.2c0.2,0.1-0.1,0.4-0.4,0.7c-0.2,0.3-0.4,0.6,0.1,0.3l0.5-0.3c-0.3,0.5-0.3,0.5-0.2,0.6c0.1,0,0.1,0-0.2,0.6L142,30
		c0.1,0.1-0.2,0.5-0.1,0.6c0.1,0,0.2-0.1,0.6-0.4l0-0.1c0.4-0.1,0.4,0,0.7,0c0.1-0.1,0.3-0.2,0.3,0c0.4-0.6,0.8-0.3,1-0.3
		c-0.3,0.1-0.3,0.4-0.2,0.6c0.3-0.5,0.4-0.6,0.6-0.2c0-0.4,0.1-0.8,0.2-1.1c0-0.3,0.2-0.5,0.5-0.6c-0.1,0.1-0.3,0.2-0.2,0.4
		c0.1,0.2,0.2,0,0.3-0.1c0.1,0.2-0.1,0.3-0.1,0.6c0.4-0.8,0.8-0.1,1.4-0.3c-0.2,0.2,0,0.4,0,0.7c0.1-0.9,0.9,0.8,0.6-0.4
		c1.3,0.7,3.2,0.1,3.7,0.8c0.1,0.3,0.5-0.2,0.7-0.2l0,0.4c0.6-0.7,0.5-0.3,1.2-1c-0.3,0.5-0.2,0.7,0.1,1.1l0.5-0.8l0.1,0.6
		c0.2-0.2,0.4-0.1,0.7,0c-0.1,0-0.1,0.1,0,0.2c0.1-0.9,1-0.8,1.1-1.2c0.2,0.8,0.6-0.2,0.8,0.6c0.1-0.1,0.2-0.2,0.3-0.3
		c-0.1-0.4-0.1-0.8,0.1-0.6c0,0,0,0,0,0l-0.1-0.4c0-0.5,0.3,0.1,0.5,0.5c0.1,0.1,0.2,0.2,0.2,0.2c0,0,0.1,0,0.1,0c0,0,0,0,0,0
		c0.1,0.1,0.3,0.2,0.4,0c0.7,0.7,1.6-1,2.4,0c-0.1-0.1-0.3-0.2-0.3,0c0.7,0,1.3,0.7,1.7,0.3l0-0.5c0.1,0,0.2-0.1,0.3-0.1
		c0.1,0,0.1-0.1,0.1-0.1c0.1-0.1,0.1-0.1,0.2-0.1l-0.1-0.5c0.1,0.1,0.1-0.1,0.1-0.1c0,0,0.1,0,0.5,0.5c-0.2-0.3,0.1,0,0.3,0
		c0,0,0,0,0-0.1l0.4,0.3c0.1,0,0-0.3-0.1-0.4c0,0-0.1,0-0.1,0c-0.3-0.3-0.2-0.2,0-0.2c0,0,0.1,0,0.3-0.1c0.4,0.2,0,0.1-0.3,0.1
		c0,0,0,0.1,0.1,0.2c0.4,0.1,0.4-0.1,0.3-0.3c-0.1-0.2-0.3-0.4-0.3-0.5l0.1,0c0,0-0.1-0.1-0.1-0.2c-0.1-0.2-0.1-0.4-0.1-0.4
		c0.4,0.2-0.2-0.1-0.1-0.4c-0.2-0.2-0.1-0.6,0.2-0.9l0-0.5c0.3,0.5,0.6,0,1-0.1l-0.4-0.3c0.2-0.1,0.4,0.2,0.5,0
		c-0.2-0.2-0.2-0.8-0.7-1c-0.1,0-0.2,0.1-0.3,0.2c0,0,0,0,0,0l0,0c-0.1,0.1-0.1,0.2-0.1,0.2c0,0.1-0.1,0.2,0,0.3c0-0.1,0-0.2,0-0.2
		c0,0,0-0.2,0,0c0,0,0,0,0.1,0c0-0.1,0.1-0.1,0.1-0.2c0,0,0,0,0,0c0,0-0.1-0.1-0.2-0.1c0,0,0,0.1,0,0.1c-0.1-0.1,0-0.2,0-0.1
		c0.1-0.4-0.1-0.2-0.3-0.2c0.7-0.4,0.2-0.7,1.1-1c-0.9,0.5,0-1-0.9-0.7c0.7-0.3,0-0.2,0.6-0.4c-0.2,0.5,0.5,0.9,0.8,1.3l0.4-0.4
		c0.8,0.2-0.3,0.8,0,1c-0.2-0.1,0-0.5,0.2-0.5l-0.6,0.1c-0.3,0.5,0.2,0.9,0.5,1.3c0.2-0.3,0.4,0.4,0.8,0.2l-0.1-0.3
		c0.1,0,0.1,0,0.2,0v-2.9c-0.6-0.1-0.8-0.7-1.2-0.5c0.2-0.2,0.6-0.1,0.4-0.6c-0.4-0.3-0.7,0.4-0.9,0.5c-0.2-0.4-0.4-0.4-0.6-0.4
		c0,0-0.1,0-0.1,0l0,0c-0.1,0-0.3-0.1-0.5-0.3c0.3-0.2,0.5-0.3,0.5-0.5l-0.2-0.7l0,0c-0.1,0.1-0.1,0.2-0.2,0.3
		c-0.1,0,0.1-0.2,0.2-0.3c0.1-0.1,0.1-0.2,0.2-0.4c0-0.2,0-0.4-0.2-0.5c0-0.2,0.2-0.1,0.4-0.1c0-0.1,0-0.3-0.1-0.4
		c-0.1-0.1-0.2-0.1-0.3-0.2c-0.1,0-0.1,0,0,0c0,0,0,0,0,0c0,0,0.1,0,0.1-0.1l0,0c0.1,0,0.1,0,0,0c0.1,0.1,0.1,0.2,0.1,0.3
		c0.1,0.1,0.2,0.2,0.2,0.3c0,0.1,0,0-0.1,0c0,0.2,0,0.4-0.1,0.6c0,0.1,0,0.2,0.1,0.4c0.2-0.5,0.6,0.4,0.5-0.3
		c0.2,0.3,0.5,0.1,0.6,0.6c-0.5,0.2-0.7-0.1-1.1-0.3c0.1,0.3,0.1,0.5,0,0.7l0.1,0.1l-0.1-0.1l-0.1,0.7l0.1,0c0.7-0.3,2-0.5,2.3-0.2
		v-0.5c-0.1,0.1-0.2,0-0.3-0.2l0.2,0c0,0,0,0,0,0V8.4L165.6,9l-0.1-0.7c0.1,0.1,0.2,0.1,0.3,0.1V6.6h-0.9
		C165.1,7.1,165.3,7.6,165.1,8 M163,24.7c-0.2,0.1,0.5,0,0.4,0.1C163.6,25.5,162.5,24.6,163,24.7 M164.8,23.6c0,0,0.1,0,0.2,0.1
		C164.9,23.6,164.8,23.6,164.8,23.6 M165.4,24.1c-0.2,0-0.1-0.3,0-0.5c-0.1-0.1-0.1-0.3-0.1-0.3c0.1,0.1,0.1,0.2,0.1,0.3
		c0,0.1,0.1,0.1,0.2,0.1L165.4,24.1z M165.8,22.1l-0.1,0.2l-0.4-0.1L165.8,22.1z M164.6,21.6c0,0.1,0,0.2,0,0.2
		C164.6,21.7,164.4,21.5,164.6,21.6 M164.6,21.9C164.6,21.9,164.6,21.9,164.6,21.9c0.1,0.2,0.2,0.4-0.2,0.5
		C164.2,22.1,164.1,21.8,164.6,21.9 M165.2,11.3l-0.2,0.2c-0.2,0,0.1-0.3,0-0.4L165.2,11.3z M165,8.9l0.2,0.3l-0.3-0.2L165,8.9z
		 M164.3,9.1l0.3,0.3l-0.4-0.4L164.3,9.1z M164.6,10.1l-0.2,0.1c-0.3,0.4,0.6,1-0.1,1.2c0.2-0.3-0.2-1-0.3-1.5L164.6,10.1z
		 M164.2,13.9l-0.6-0.7l0.6,0.6L164.2,13.9z M162.7,12.4C162.8,12.3,162.8,12.3,162.7,12.4c0.2,0.5,0.3,0.2,0,0.2
		C162.7,12.5,162.7,12.4,162.7,12.4C162.5,12.5,162.7,12.1,162.7,12.4 M162.6,13.1l0.3,0.3c-0.3,0.2-0.4,0.3-0.6-0.1
		C162.4,13.5,162.5,13.2,162.6,13.1 M162.5,16.7l0.2,0.2l-0.5-0.4L162.5,16.7z M162.4,18.3c-0.2-0.2-0.5-0.4-0.5-0.6
		c0.2,0.2,0.4-0.2,0.7,0C162.3,17.9,162.3,18.1,162.4,18.3c0.1,0.1,0.3,0.2,0.3,0.3C162.6,18.5,162.5,18.4,162.4,18.3 M163.1,22.7
		c-0.1,0.1-0.2,0.1-0.2,0.3l-0.1-0.4C162.8,22.8,163,22.7,163.1,22.7 M163.1,21.4l-0.2-0.2l0.4,0L163.1,21.4z M163.2,20.5l0.2,0.3
		l-0.7-0.3L163.2,20.5z M163.3,16.2c0,0,0,0.1,0,0.1l0,0c0,0.2,0,0.3,0,0.3c0,0,0-0.1,0-0.3l-0.4,0.1
		C163,16.3,163.2,16.2,163.3,16.2L163.3,16.2C163.4,16.2,163.4,16.2,163.3,16.2 M163.1,15.3c-0.2,0-0.5,0.1-0.6,0.1
		c0.2,0,0.3-0.2,0.4-0.4L163.1,15.3c0.2,0,0.3,0,0.3,0.3L163.1,15.3z M163.3,13.6l0.1,0.2C163.2,13.7,163.2,13.6,163.3,13.6
		l-0.2-0.3c0.2,0.1,0.4,0.2,0.1,0.2C163.7,13.5,163.4,13.5,163.3,13.6 M163.2,13.1c-0.1-0.6,0.4-0.7,0.5-0.1
		C163.5,12.7,163.4,12.9,163.2,13.1 M163.8,16.2l0-0.1l-0.3-0.4c0.1,0.1,0.3,0,0.4,0l-0.1,0.4l0.1,0.2L163.8,16.2z M163.8,14.7
		c0.4,0.3,0.6,0.1,0.9,0.2C164.3,15.4,164.1,14.9,163.8,14.7 M164.7,17.9l-0.2-0.6c0.2,0,0.5,0,0.4,0.3l0.2,0L164.7,17.9z
		 M165.5,15.3c0,0,0.1,0,0.1,0C165.6,15.4,165.6,15.4,165.5,15.3c-0.1,0-0.2-0.1-0.4,0c0,0.2,0.1,0.2,0.2,0.3
		c-0.4,0.2-0.6,0.3-1,0.3c0,0-0.1,0-0.1,0c0,0,0.1,0,0.1,0c0.2-0.1,0.5-0.4,0.7-0.6l-0.1-0.1C165.2,15,165.4,15.2,165.5,15.3"/>
	<path class="st2" d="M144.8,8.4l0.1,0.1C144.9,8.4,144.9,8.3,144.8,8.4"/>
	<path class="st2" d="M163.3,18.8C163.3,18.8,163.3,18.8,163.3,18.8L163.3,18.8C163.3,18.8,163.3,18.8,163.3,18.8"/>
	<path class="st2" d="M159,30c-0.3,0.2-0.6,0.8-0.9,1.4h0.9c0.3-0.6,0.5-1.1,0.7-1.5l-0.5,0.4L159,30z"/>
	<path class="st2" d="M144.6,30.6c0,0-0.6,0.3-0.6,0.3c0,0.1,0.1,0.2,0.1,0.4h0.1c0.1-0.1,0.1-0.1,0.2-0.2
		C144.5,30.9,144.6,30.7,144.6,30.6"/>
	<path class="st3" d="M177.2,20.3L177.2,20.3L177.2,20.3C177.1,20.3,177.2,20.3,177.2,20.3"/>
	<path class="st3" d="M177.1,20.4l-0.2,0.4C177.2,20.8,177.2,20.6,177.1,20.4"/>
	<path class="st3" d="M179.5,16.3l0.4-0.2c-0.1,0.2-0.7,0.2-0.7,0.6c0.4,0.1,0.7,0.6,1.4,0.6c0.9-0.4-0.6-1-0.1-1.7
		c-0.1-0.1,0.5,0.5,0.5-0.1c-0.1-0.5-0.3-1-0.7-1.4l-0.8,1.7c0.1,0,0.1-0.1,0.2-0.1C179.4,15.8,179.4,16.1,179.5,16.3 M180.2,14.8
		l0,0.4c-0.2,0-0.2-0.2-0.2-0.3C180,14.8,180.1,14.7,180.2,14.8"/>
	<path class="st3" d="M183.6,10.8l0-0.9l0.1,0.5c0-0.5,0-1.7,0-3.1l-0.3,0.6C183.4,9.1,183.5,10.1,183.6,10.8"/>
	<path class="st3" d="M173.2,28.8l0.7,0.7c0-0.2,0.1-0.6,0-0.7c-0.1,0-0.2,0-0.2,0c0.1-0.1,0.2-0.1,0.2,0c0.2,0,0.3,0,0.1-0.4
		c0.2,0.2,0.3,0.3,0.5,0.4c0.3-0.2-0.2-1,0.5-0.8c-0.3,0.1-0.2,0.6-0.3,1c1.5,0.7,3.1-0.3,4.5,0.4c0.1-0.1,0-0.3,0-0.4
		c0.3,0.6,0.3-0.3,0.5-0.4l0.5,0.9c0.2-0.3,0-0.5,0.1-0.7c0.9-0.2,1.8,0.7,2.5,0.2c0.2,0.3-0.1,0.7,0.2,0.8
		c-0.4-0.9,0.9-0.4,0.6-1.1c0.3,1,1.1,0.2,1,1.6c0.4,0.1,0.3-0.6,0.2-0.7c0.4,0.1,0.8,0.1,1.1-0.4c0.2,0.3,1.9-0.3,2.3,0.7
		c-0.3-0.7,0-0.3,0.3-0.6l-0.2-0.6l0.6,0.1c0.1-0.1,0.1,0,0.1,0c0.1,0,0,0.3,0.2,0.5c0.4,0,0.4-0.3,0.6-0.6l-0.1-0.1l0.3-0.1
		c0.2,0-0.7,0.6-0.1,0.9c0-0.2,0.4-0.9,0.5-0.5c-0.3,0-0.3,0.4-0.1,0.5c0,0,0.3,0,0.3,0c0,0,0-0.2-0.1-0.4c0-0.2-0.1-0.4-0.1-0.4
		c0.3,0,0.6,0.2,1,0.3c0.4,0.1,0.9,0.3,1.3,0.2c0.7,0.6,0.6,0,1.7,1l-0.2-0.1c-0.2,0.1,1,0.8,1.2,0.6c-0.3-0.2-0.5-0.4-0.8-0.6
		c-0.2-0.2-0.5-0.4-0.8-0.5c0,0-0.3-0.4-0.3-0.4c-1-0.8-1.1-0.9-0.8-0.8c0.2,0,0.8,0.1,0.2-0.3c0.1,0.1,0.3,0.1,0.3,0.2
		c-0.5-0.4-0.4-0.4-0.3-0.5c0.1-0.1,0.3-0.2,0.1-0.3l0.6,0.1c-1.1-0.6-1.2-0.5-1-0.9c0.1,0,0.3,0,0.4,0c-0.5-0.1-0.9-0.1-0.9-0.3
		l0.2,0l-0.3-0.3c1.4-0.6-1.4-0.7,0-1.7c-0.5,0.1-0.9-0.4-1.2-0.5c-0.1,0-0.2,0.1-0.3,0c0.1-0.1,0.2-0.1,0.3,0
		c0.1,0,0.1-0.1,0.2-0.1c-0.9,0.1-0.1-0.9-0.4-1.1c-0.3-0.1-0.5,0.1-0.7,0.3c0.4-0.7-1.2-0.7-1-1c-0.1-0.3,0.5-0.4,0.7-0.6
		c-0.3-0.3-1.2,0.7-0.9-0.1c0.1,0,0.2,0.1,0.3,0c0-0.3,1.4-1.4,1-1.5l-0.2,0.3c-0.6-0.2,0.7-1.5-0.3-1.1l-0.4,0.3
		c0.2-1-0.3-0.2-0.1-1.1l0.1,0c-0.2-0.3,0.2-0.7-0.5-0.5l0,0.1c-0.2-0.3-0.2-0.4-0.4-0.8c-0.1,0-0.3-0.1-0.2-0.3
		c-0.6,0.3-0.7-0.7-0.7-0.9c0.2,0.3,0.4,0,0.6-0.2c-0.6,0.1-0.7,0-0.4-0.4c-0.7,0.3-1.5,0.7-1.8,0.2c0.1,0,0.3,0.1,0.4,0
		c0.1-0.1-0.1-0.2-0.2-0.2c0.1-0.1,0.3,0,0.5-0.2c-0.4,0-0.5-0.1-0.5-0.3c0-0.1,0-0.2-0.1-0.3c0-0.1-0.1-0.2-0.2-0.2
		c0.2-0.1,0.4-0.2,0.6-0.3c-0.4,0.2-0.3,0-0.2-0.1c0.1-0.2,0.2-0.3-0.3,0.1c0.2-0.4,0-0.8-0.1-1.1c-0.1-0.3-0.2-0.6-0.1-1.2
		c0.1-0.5-0.2,0-0.3,0l0.2-0.6c-0.2,0.4-0.3,0.4-0.3,0.5c-0.1,0.1-0.1,0.1-0.3,0.5c0.2-0.7,0.3-1,0.3-1.8c0,0-0.3,1-0.3,1.2l0,0
		c0,0,0,0,0,0l0.1-1.1c-0.1,0.3-0.1,0.1-0.2-0.2c-0.2,1.2-0.3,0.8-0.3,1.5c0-1.9-0.1,0.3-0.1-1.5c0,0.1,0,0.1,0,0.2
		c0,0.2,0,0.4,0,0.5c0,0.8,0,1.7,0,1.3c0,0,0,0,0,0l0,0.9c0,1,0-0.3-0.1-1c0-0.1,0-0.3-0.1-0.4c0,0,0,0,0,0c0,0,0-0.1,0-0.1
		c0-0.2-0.1-0.3-0.1,0.1c-0.1-0.6-0.2,0-0.2,0.5c0,0.5,0,0.9-0.2,0.2c0.1,0.1,0.1,0.2,0-0.1c-0.1,0.2-0.5-0.5-0.4,0.2l0.2,0.6
		c0,0.4,0.1,0.6,0,0.7l0.3,0.5c-0.1-0.1,0,0.2,0,0.2c0,0.1,0,0.1-0.5-0.3c0.3,0.3-0.2,0.1-0.1,0.2c0,0-0.4-0.1-0.4-0.1
		c-0.3,0.2-0.2,0.5-0.2,0.7c0,0,0.1,0,0.1,0c0.2,0.3,0,0.4-0.2,0.5c-0.1,0.1-0.2,0.2-0.4,0.3c-0.3-0.2,0.1-0.2,0.4-0.3
		c0.1-0.1,0.1-0.3,0.1-0.4c-1,0.2-0.6,1.2-0.9,1.7l-0.1,0l0,0.7c-0.2-0.3,0.2,0.2,0,0.3c0.1,0.3-0.1,0.5-0.5,0.6l-0.2,0.3
		c0-0.5-0.5-0.2-0.9-0.4l0.2,0.4c-0.2,0-0.2-0.3-0.4-0.2c0.1,0.3-0.1,0.7,0.3,1c0.1,0,0.2,0,0.3,0c0,0,0,0,0,0l0,0
		c0.1-0.1,0.1-0.1,0.2-0.1c0.1,0,0.1-0.1,0.1-0.2c0,0.1-0.1,0.1-0.1,0.2c0,0,0,0.1,0,0c0,0,0,0-0.1,0c-0.1,0-0.1,0.1-0.2,0.1
		c0,0,0,0,0,0c0,0,0.1,0.1,0.1,0.1c0,0,0.1-0.1,0.1-0.1c0,0.1,0,0.1-0.1,0.1c-0.2,0.2,0,0.2,0.2,0.3c-0.8,0-0.5,0.4-1.3,0.3
		c1,0.1-0.4,0.7,0.5,0.9c-0.8-0.1-0.1,0.1-0.7,0c0.3-0.2-0.1-0.9-0.2-1.3l-0.5,0.1c-0.6-0.5,0.6-0.4,0.4-0.7
		c0.1,0.2-0.2,0.3-0.3,0.3l0.6,0.2c0.4-0.3,0.1-0.8,0-1.2c-0.3,0.2-0.2-0.5-0.7-0.5l0,0.2c-0.1,0-0.1,0-0.2-0.1l-1.1,2.1
		c0.5,0.3,0.5,0.8,0.9,0.9c-0.3,0.1-0.6-0.1-0.5,0.3c0.2,0.4,0.7,0,1,0c0.1,0.4,0.2,0.4,0.4,0.5c0,0,0.1,0,0.1,0l0,0
		c0.1,0.1,0.2,0.2,0.3,0.4c-0.4,0-0.5,0-0.7,0.1l0,0.6h0c0.1,0,0.2-0.1,0.3-0.1c0.1,0.1-0.2,0.1-0.3,0.1c-0.1,0-0.2,0.1-0.3,0.2
		c0,0.2-0.1,0.3,0,0.5c-0.1,0.2-0.3,0-0.4-0.1c0,0.1-0.1,0.2-0.1,0.3c0.1,0.1,0.1,0.2,0.2,0.3c0.1,0,0.1,0,0,0c0,0,0,0,0,0
		c0,0-0.1,0-0.1,0l0,0c-0.1,0-0.1,0,0,0c0-0.1,0-0.2,0-0.3c-0.1-0.1-0.1-0.2,0-0.3c0,0,0,0,0.1,0c0.1-0.2,0.2-0.3,0.3-0.4
		c0-0.1,0.1-0.2,0-0.3c-0.4,0.3-0.4-0.6-0.6,0c-0.1-0.3-0.4-0.3-0.3-0.7c0.5,0.1,0.5,0.4,0.9,0.7c0.1-0.3,0.1-0.4,0.2-0.5l0-0.1
		l0,0.1l0.3-0.5l-0.1,0c-0.7-0.1-2-0.5-2.2-0.9l-0.2,0.4c0.1,0,0.2,0.1,0.1,0.3l-0.2-0.1c0,0,0,0,0,0l-3.9,7.7
		C172.9,29.1,173.1,29.1,173.2,28.8 M180.7,18.6c0-0.6,0.7,0.6,0.3,0.3C181.2,18.9,180.6,18.6,180.7,18.6 M180.4,20.1l0,0.3
		c0-0.1-0.1-0.1-0.2-0.2C180.3,20.3,180.4,20.3,180.4,20.1 M177.6,19.5l0.2-0.1l0.3,0.3L177.6,19.5z M179,18.9c0,0-0.1-0.1-0.2-0.1
		C178.9,18.8,179,18.9,179,18.9 M178.3,18.5l0.3-0.2c0.1,0.1,0,0.2-0.2,0.4c0,0.1,0,0.2,0,0.3c0-0.1,0-0.2,0-0.3
		C178.4,18.6,178.4,18.5,178.3,18.5 M178.4,20.4c0,0,0.1-0.1,0.1-0.2C178.5,20.4,178.6,20.6,178.4,20.4 M178.5,20.2
		C178.5,20.2,178.5,20.2,178.5,20.2c0-0.2,0-0.4,0.3-0.2C178.9,20.2,179,20.5,178.5,20.2 M179.7,21.2l0.1,0.3l-0.3-0.2L179.7,21.2z
		 M179.3,21.8l-0.1-0.3l0.5,0.5L179.3,21.8z M179.2,23.8c-0.1-0.1-0.2-0.3-0.2-0.4C179.1,23.6,179.2,23.7,179.2,23.8
		c0.1,0.2,0.3,0.5,0.3,0.7c-0.1-0.2-0.4,0-0.6-0.3C179.1,24.1,179.2,24,179.2,23.8 M178.8,25.2l-0.2-0.3l-0.1-0.2L178.8,25.2z
		 M175.9,26.2L175.9,26.2l0.3,0.7L175.9,26.2z M175.9,25.2c0.5-0.1,0.6,0.3,0.7,0.5C176.4,25.3,176.1,25.4,175.9,25.2 M176.1,27.1
		c0.1,0.3,0.3,0.2,0.5,0.2C176.5,27.7,176,27.5,176.1,27.1 M176.7,26.8l0-0.2C176.8,26.8,176.8,26.8,176.7,26.8l0.1,0.3
		c-0.1-0.2-0.2-0.3-0.1-0.2C176.3,26.7,176.6,26.8,176.7,26.8 M176.8,27.9C176.7,27.9,176.7,27.9,176.8,27.9c0-0.5-0.2-0.2,0.1-0.2
		C176.8,27.8,176.8,27.9,176.8,27.9C177,27.9,176.7,28.1,176.8,27.9 M177.1,27.4l-0.1-0.3c0.3,0,0.5,0,0.5,0.3
		C177.4,27.2,177.3,27.4,177.1,27.4 M177.6,24.9C177.6,24.8,177.7,24.8,177.6,24.9L177.6,24.9c0.1-0.2,0.2-0.3,0.2-0.3
		C177.8,24.6,177.7,24.7,177.6,24.9h0.5C178,25,177.7,24.9,177.6,24.9L177.6,24.9C177.6,24.9,177.6,24.9,177.6,24.9 M177.3,25.3
		l0.1,0.4c0.2,0.1,0.5,0.1,0.6,0.2c-0.2-0.1-0.4,0-0.5,0.1l-0.1-0.2C177.3,25.6,177.2,25.5,177.3,25.3 M177.2,24.7L177.2,24.7l0,0.5
		c-0.1-0.1-0.2-0.2-0.3-0.2L177.2,24.7l-0.1-0.1L177.2,24.7z M176.9,23l0,0.5c-0.1-0.1-0.4-0.2-0.2-0.4l-0.2-0.1L176.9,23z
		 M175.3,24.5c0.1,0.1,0.1,0.2,0.3,0.2c0.1-0.1,0-0.2-0.1-0.3c0.4,0,0.6,0.1,1,0.2c0,0,0.1,0,0.1,0c0,0-0.1,0-0.1,0
		c-0.2,0-0.6,0-0.8,0.1l0,0.1C175.5,24.9,175.4,24.6,175.3,24.5C175.3,24.5,175.3,24.5,175.3,24.5C175.3,24.4,175.3,24.5,175.3,24.5
		 M174.4,27.5c0.2,0.1-0.2,0.2-0.1,0.3l-0.1-0.3L174.4,27.5z"/>
	<path class="st3" d="M178.5,22.9c0,0,0.1,0.1,0.1,0.1C178.6,22.9,178.6,22.8,178.5,22.9"/>
	<path class="st3" d="M184.3,11.8l0-1c0,0.3-0.1,0.5-0.1,0.6C184.2,11.4,184.2,11.6,184.3,11.8C184.3,11.9,184.3,12,184.3,11.8"/>
	<polygon class="st3" points="178.7,23 178.7,23 178.7,23 	"/>
	<path class="st3" d="M178.6,23C178.6,23,178.6,23,178.6,23L178.6,23C178.6,23,178.6,23,178.6,23"/>
	<path class="st3" d="M188.5,15.2c0.1-0.1,0.2-0.2,0.3-0.4l-0.1-0.1c-0.1,0-0.2,0-0.2,0c-0.3,0-0.5,0.1-0.6,0.2L188.5,15.2z"/>
	<path class="st3" d="M181.1,17.6C181.3,17.6,181.4,17.5,181.1,17.6L181.1,17.6z"/>
	<path class="st3" d="M189,28.9l-0.1-0.1C188.8,28.9,188.8,29,189,28.9"/>
	<path class="st3" d="M188.3,14.7c0.1,0,0.1,0,0.2,0c0.1,0,0.1,0,0.2,0l-0.1-0.2C188.5,14.5,188.4,14.5,188.3,14.7"/>
	<path class="st3" d="M181.3,12l-0.2,0.3c0.1,0,0.3,0.1,0.4,0.2C181.5,12.5,181.4,12.3,181.3,12"/>
	<path class="st3" d="M185.6,8.6l-0.1-0.3c-0.1,0.6-0.2,1.1-0.3,1.5C185.2,9.7,185.4,9.2,185.6,8.6"/>
	<path class="st3" d="M184.8,9.4c0,0.1,0,0.2,0,0.3C184.8,9.7,184.8,9.6,184.8,9.4"/>
	<path class="st3" d="M172.4,29.7l-0.5,1h0.7C172.5,30.4,172.4,30,172.4,29.7"/>
	<path class="st3" d="M182.5,11.2l-0.4-0.8l-0.2,0.4c0.1,0.1,0.1,0.1,0.2,0.2c0.3,0.2,0.9,0.6,1,0.6c-0.1-0.3-0.4-1-0.7-1.7
		l-0.2,0.4L182.5,11.2z"/>
	<polygon class="st4" points="0,35.1 2.8,35.1 2.8,35.4 0.3,35.4 0.3,36.9 2.5,36.9 2.5,37.2 0.3,37.2 0.3,38.7 2.8,38.7 2.8,39 
		0,39 	"/>
	<polygon class="st4" points="7.1,37 5.6,35.1 5.9,35.1 7.3,36.8 8.6,35.1 8.9,35.1 7.4,37 9,39 8.6,39 7.3,37.2 5.9,39 5.5,39 	"/>
	<polygon class="st4" points="12,35.1 14.7,35.1 14.7,35.4 12.2,35.4 12.2,36.9 14.5,36.9 14.5,37.2 12.2,37.2 12.2,38.7 14.7,38.7 
		14.7,39 12,39 	"/>
	<path class="st4" d="M19.5,39.1c-0.3,0-0.5-0.1-0.8-0.2c-0.2-0.1-0.4-0.2-0.6-0.4c-0.2-0.2-0.3-0.4-0.4-0.6
		c-0.1-0.2-0.1-0.5-0.1-0.8v0c0-0.3,0-0.5,0.1-0.8c0.1-0.2,0.2-0.5,0.4-0.6c0.2-0.2,0.4-0.3,0.6-0.4c0.2-0.1,0.5-0.2,0.8-0.2
		c0.2,0,0.3,0,0.5,0c0.1,0,0.3,0.1,0.4,0.1c0.1,0.1,0.2,0.1,0.3,0.2c0.1,0.1,0.2,0.2,0.3,0.3l-0.2,0.2c-0.1-0.1-0.2-0.2-0.3-0.2
		c-0.1-0.1-0.2-0.1-0.3-0.2c-0.1,0-0.2-0.1-0.3-0.1c-0.1,0-0.3,0-0.4,0c-0.2,0-0.4,0-0.6,0.1c-0.2,0.1-0.4,0.2-0.5,0.4
		c-0.1,0.2-0.3,0.3-0.3,0.6c-0.1,0.2-0.1,0.4-0.1,0.7v0c0,0.2,0,0.5,0.1,0.7c0.1,0.2,0.2,0.4,0.3,0.6c0.1,0.2,0.3,0.3,0.5,0.4
		c0.2,0.1,0.4,0.1,0.7,0.1c0.3,0,0.5-0.1,0.7-0.2c0.2-0.1,0.4-0.3,0.6-0.5l0.2,0.2c-0.1,0.1-0.2,0.2-0.3,0.3
		c-0.1,0.1-0.2,0.2-0.4,0.2C20.3,38.9,20.2,39,20,39C19.9,39,19.7,39.1,19.5,39.1"/>
	<path class="st4" d="M25.5,39c-0.2,0-0.4,0-0.6-0.1c-0.2-0.1-0.4-0.2-0.5-0.3c-0.1-0.1-0.3-0.3-0.3-0.5c-0.1-0.2-0.1-0.4-0.1-0.7
		v-2.3h0.3v2.2c0,0.5,0.1,0.8,0.3,1.1c0.2,0.3,0.6,0.4,1,0.4c0.2,0,0.4,0,0.5-0.1c0.2-0.1,0.3-0.1,0.4-0.3c0.1-0.1,0.2-0.3,0.3-0.4
		c0.1-0.2,0.1-0.4,0.1-0.6v-2.3h0.3v2.2c0,0.3,0,0.5-0.1,0.7c-0.1,0.2-0.2,0.4-0.3,0.5c-0.1,0.1-0.3,0.3-0.5,0.3
		C26,39,25.8,39,25.5,39"/>
	<polygon class="st4" points="31.4,35.4 30,35.4 30,35.1 33,35.1 33,35.4 31.7,35.4 31.7,39 31.4,39 	"/>
	<rect x="36.1" y="35.1" class="st4" width="0.3" height="3.9"/>
	<polygon class="st4" points="39.3,35.1 39.6,35.1 41.2,38.7 42.7,35.1 43,35.1 41.3,39 41,39 	"/>
	<polygon class="st4" points="45.9,35.1 48.7,35.1 48.7,35.4 46.2,35.4 46.2,36.9 48.4,36.9 48.4,37.2 46.2,37.2 46.2,38.7 
		48.7,38.7 48.7,39 45.9,39 	"/>
	<path class="st4" d="M56.9,39c-0.3,0-0.6-0.1-0.8-0.2s-0.5-0.3-0.7-0.5l0.2-0.2c0.1,0.1,0.2,0.2,0.3,0.3c0.1,0.1,0.2,0.1,0.3,0.2
		c0.1,0,0.2,0.1,0.3,0.1c0.1,0,0.3,0,0.4,0s0.3,0,0.4-0.1c0.1,0,0.2-0.1,0.3-0.2c0.1-0.1,0.2-0.2,0.2-0.2c0-0.1,0.1-0.2,0.1-0.3v0
		c0-0.1,0-0.2,0-0.3c0-0.1-0.1-0.2-0.2-0.2c-0.1-0.1-0.2-0.1-0.3-0.2c-0.1-0.1-0.3-0.1-0.5-0.1c-0.2,0-0.4-0.1-0.6-0.2
		c-0.2-0.1-0.3-0.1-0.4-0.2c-0.1-0.1-0.2-0.2-0.2-0.3c0-0.1-0.1-0.2-0.1-0.4v0c0-0.1,0-0.3,0.1-0.4c0.1-0.1,0.2-0.2,0.3-0.3
		c0.1-0.1,0.2-0.2,0.4-0.2c0.2-0.1,0.3-0.1,0.5-0.1c0.3,0,0.5,0,0.7,0.1c0.2,0.1,0.4,0.2,0.6,0.4l-0.2,0.2c-0.2-0.2-0.4-0.3-0.6-0.3
		c-0.2-0.1-0.4-0.1-0.6-0.1c-0.1,0-0.3,0-0.4,0.1c-0.1,0-0.2,0.1-0.3,0.2c-0.1,0.1-0.1,0.1-0.2,0.2c0,0.1-0.1,0.2-0.1,0.3v0
		c0,0.1,0,0.2,0,0.3c0,0.1,0.1,0.2,0.2,0.2c0.1,0.1,0.2,0.1,0.3,0.2c0.1,0.1,0.3,0.1,0.6,0.2c0.5,0.1,0.8,0.2,1,0.4
		c0.2,0.2,0.3,0.4,0.3,0.7v0c0,0.2,0,0.3-0.1,0.4c-0.1,0.1-0.2,0.2-0.3,0.3c-0.1,0.1-0.2,0.2-0.4,0.2C57.2,39,57,39,56.9,39"/>
	<polygon class="st4" points="61.2,35.1 64,35.1 64,35.4 61.5,35.4 61.5,36.9 63.7,36.9 63.7,37.2 61.5,37.2 61.5,38.7 64,38.7 
		64,39 61.2,39 	"/>
	<path class="st4" d="M68.5,35.1h0.3l1.8,3.9h-0.3l-0.5-1.1h-2.3L67,39h-0.3L68.5,35.1z M69.7,37.6l-1-2.3l-1,2.3H69.7z"/>
	<path class="st4" d="M73.5,35.1h1.6c0.2,0,0.5,0,0.6,0.1c0.2,0.1,0.3,0.2,0.5,0.3c0.1,0.1,0.2,0.2,0.2,0.3c0.1,0.1,0.1,0.3,0.1,0.4
		v0c0,0.2,0,0.3-0.1,0.4c-0.1,0.1-0.1,0.2-0.2,0.3c-0.1,0.1-0.2,0.2-0.4,0.2c-0.1,0.1-0.3,0.1-0.5,0.1l1.3,1.7h-0.4l-1.2-1.6h0h-1.3
		V39h-0.3V35.1z M75.1,37.1c0.2,0,0.3,0,0.5-0.1s0.3-0.1,0.4-0.2c0.1-0.1,0.2-0.2,0.2-0.3c0.1-0.1,0.1-0.2,0.1-0.4v0
		c0-0.3-0.1-0.5-0.3-0.6c-0.2-0.2-0.5-0.2-0.8-0.2h-1.3v1.8H75.1z"/>
	<path class="st4" d="M81.4,39.1c-0.3,0-0.5-0.1-0.8-0.2c-0.2-0.1-0.4-0.2-0.6-0.4c-0.2-0.2-0.3-0.4-0.4-0.6
		c-0.1-0.2-0.1-0.5-0.1-0.8v0c0-0.3,0-0.5,0.1-0.8c0.1-0.2,0.2-0.5,0.4-0.6c0.2-0.2,0.4-0.3,0.6-0.4c0.2-0.1,0.5-0.2,0.8-0.2
		c0.2,0,0.3,0,0.5,0c0.1,0,0.3,0.1,0.4,0.1c0.1,0.1,0.2,0.1,0.3,0.2c0.1,0.1,0.2,0.2,0.3,0.3l-0.2,0.2c-0.1-0.1-0.2-0.2-0.3-0.2
		c-0.1-0.1-0.2-0.1-0.3-0.2c-0.1,0-0.2-0.1-0.3-0.1c-0.1,0-0.3,0-0.4,0c-0.2,0-0.4,0-0.7,0.1c-0.2,0.1-0.4,0.2-0.5,0.4
		c-0.1,0.2-0.3,0.3-0.3,0.6c-0.1,0.2-0.1,0.4-0.1,0.7v0c0,0.2,0,0.5,0.1,0.7c0.1,0.2,0.2,0.4,0.3,0.6c0.1,0.2,0.3,0.3,0.5,0.4
		c0.2,0.1,0.4,0.1,0.6,0.1c0.3,0,0.5-0.1,0.7-0.2s0.4-0.3,0.6-0.5l0.2,0.2c-0.1,0.1-0.2,0.2-0.3,0.3s-0.2,0.2-0.3,0.2
		C82.2,38.9,82,39,81.9,39C81.7,39,81.6,39.1,81.4,39.1"/>
	<polygon class="st4" points="85.9,35.1 86.2,35.1 86.2,36.9 88.6,36.9 88.6,35.1 88.9,35.1 88.9,39 88.6,39 88.6,37.2 86.2,37.2 
		86.2,39 85.9,39 	"/>
	<line class="st5" x1="98.7" y1="0" x2="98.7" y2="41.8"/>
</g>
</svg>
